<svg viewBox="0 0 514.1694946289062 105" preserveAspectRatio="xMidYMid meet" class=" logo" id="bcfdgfgg" style="width: 60%; height: 60%;"><defs id="SvgjsDefs1030"></defs><g id="SvgjsG1031" featurekey="root" fill="#051715" transform="matrix(1,0,0,1,NaN,NaN)"></g><g id="SvgjsG1032" featurekey="symbol1" fill="#ffffff" transform="matrix(1.1666666666666667,0,0,1.1666666666666667,7.666666666666666,14.666666666666666)"><g class="st0" style="display: none;"><g class="st1" style="display: inline;"><rect x="2" y="2" class="st2" width="60" height="60" style="fill: none; stroke: #fff; stroke-width: 0.1; stroke-miterlimit: 10;"></rect><line class="st2" x1="32" y1="2" x2="32" y2="62" style="fill: none; stroke: #fff; stroke-width: 0.1; stroke-miterlimit: 10;"></line><line class="st2" x1="62" y1="32" x2="2" y2="32" style="fill: none; stroke: #fff; stroke-width: 0.1; stroke-miterlimit: 10;"></line><line class="st2" x1="2" y1="2" x2="62" y2="62" style="fill: none; stroke: #fff; stroke-width: 0.1; stroke-miterlimit: 10;"></line><rect x="10" y="10" class="st2" width="44" height="44" style="fill: none; stroke: #fff; stroke-width: 0.1; stroke-miterlimit: 10;"></rect><line class="st2" x1="62" y1="2" x2="2" y2="62" style="fill: none; stroke: #fff; stroke-width: 0.1; stroke-miterlimit: 10;"></line><line class="st2" x1="2" y1="32" x2="32" y2="2" style="fill: none; stroke: #fff; stroke-width: 0.1; stroke-miterlimit: 10;"></line><line class="st2" x1="32" y1="2" x2="62" y2="32" style="fill: none; stroke: #fff; stroke-width: 0.1; stroke-miterlimit: 10;"></line><line class="st2" x1="62" y1="32" x2="32" y2="62" style="fill: none; stroke: #fff; stroke-width: 0.1; stroke-miterlimit: 10;"></line><line class="st2" x1="32" y1="62" x2="2" y2="32" style="fill: none; stroke: #fff; stroke-width: 0.1; stroke-miterlimit: 10;"></line><circle class="st2" cx="32" cy="32" r="21" style="fill: none; stroke: #fff; stroke-width: 0.1; stroke-miterlimit: 10;"></circle></g></g><polygon points="35.3,49.8 27.5,43 35.3,36.2 36.7,37.8 30.5,43 36.7,48.2 "></polygon><polygon points="44.7,49.8 43.3,48.2 49.5,43 43.3,37.8 44.7,36.2 52.5,43 "></polygon><rect x="39" y="36.9" transform="matrix(-0.9864 -0.1646 0.1646 -0.9864 72.3754 92.0034)" width="2" height="12.2"></rect><path d="M19,11c0-0.6,0.4-1,1-1h2V8h-2c-1.7,0-3,1.3-3,3v1c0,1.1-0.9,2-2,2l0,0v2l0,0c1.1,0,2,0.9,2,2v1c0,1.7,1.3,3,3,3h2v-2h-2  c-0.6,0-1-0.4-1-1v-1.8c0-0.9-0.4-1.7-1-2.2c0.6-0.6,1-1.4,1-2.2V11z"></path><path d="M29,11c0-0.6-0.4-1-1-1h-2V8h2c1.7,0,3,1.3,3,3v1c0,1.1,0.9,2,2,2l0,0v2l0,0c-1.1,0-2,0.9-2,2v1c0,1.7-1.3,3-3,3h-2v-2h2  c0.6,0,1-0.4,1-1v-1.8c0-0.9,0.4-1.7,1-2.2c-0.6-0.6-1-1.4-1-2.2V11z"></path><path d="M10,34v-6H7c-2.8,0-5-2.2-5-5V7c0-2.8,2.2-5,5-5h34c2.8,0,5,2.2,5,5v16c0,2.8-2.2,5-5,5H18.1L10,34z M7,4C5.3,4,4,5.3,4,7  v16c0,1.7,1.3,3,3,3h5v4l5.4-4H41c1.7,0,3-1.3,3-3V7c0-1.7-1.3-3-3-3H7z"></path><path d="M54,62l-8.1-6H23c-2.8,0-5-2.2-5-5V35c0-2.8,2.2-5,5-5h34c2.8,0,5,2.2,5,5v16c0,2.8-2.2,5-5,5h-3V62z M23,32  c-1.7,0-3,1.3-3,3v16c0,1.7,1.3,3,3,3h23.6l5.4,4v-4h5c1.7,0,3-1.3,3-3V35c0-1.7-1.3-3-3-3H23z"></path></g><g id="SvgjsG1033" featurekey="text1" fill="#ffffff" transform="matrix(4.0667045019911265,0,0,4.0667045019911265,95.86542116606789,-32.460461643236364)"><path d="M5.8303 10.441 c4.5085 0 6.9324 3.4917 6.9324 6.7119 c0 3.5424 -2.4407 6.8475 -6.9153 6.8475 l-4.5424 0 c-0.16966 0 -0.28831 -0.11864 -0.28831 -0.28814 l0 -13 c0 -0.15254 0.10169 -0.27119 0.27119 -0.27119 l4.5424 0 z M5.8814 22.1529 c3.1356 0 4.9324 -2.4576 4.9154 -5.0169 c0 -2.5085 -1.729 -4.8475 -4.9154 -4.8475 l-2.9661 0 l0.016949 9.8644 l2.9492 0 z M21.55931525423729 20.4915 c0.61 0 1.0336 -0.30508 1.0336 -1.0169 c0 -2.0847 -1.6102 -3.9831 -4.0847 -3.9831 c-2.3559 0 -4.2034 1.8644 -4.2034 4.3051 c0 2.5422 1.9322 4.288 4.3051 4.288 c1.5085 0 2.6949 -0.61017 3.4237 -1.5932 c0.10186 -0.13559 0.067963 -0.23729 -0.033568 -0.37288 l-0.32203 -0.42373 c-0.13559 -0.16933 -0.27119 -0.15254 -0.44085 -0.050847 c-0.5422 0.44068 -1.4405 0.81373 -2.4236 0.81373 c-1.3898 0 -2.3729 -0.84746 -2.5593 -1.9661 l5.3051 0 z M16.254115254237288 19.0508 c0.067797 -0.81356 0.83051 -1.8644 2.2203 -1.8644 c1.4068 0 2.1356 1.0678 2.1864 1.8644 l-4.4068 0 z M32.00003898305085 15.6102 l-1.4575 -0.00016552 c-0.15254 0 -0.20339 0.084746 -0.27119 0.25441 l-2.3051 5.0846 l-2.322 -5.0846 c-0.067797 -0.16966 -0.11864 -0.25441 -0.27119 -0.25441 l-1.5254 0 c-0.15254 0 -0.23712 0.084746 -0.16933 0.25441 l3.9153 8.0168 c0.050847 0.11864 0.18644 0.20339 0.28814 0.20339 l0.16949 0 c0.10169 0 0.23712 -0.084746 0.28797 -0.20339 l3.8814 -8.0168 c0.08458 -0.15254 -0.067963 -0.25424 -0.22051 -0.25424 z M39.050866101694915 20.339 c0 0.15254 -0.11864 0.27119 -0.27119 0.27119 l-5.1356 0 c-0.15254 0 -0.28814 -0.10169 -0.28814 -0.27119 l0 -1.1186 c0 -0.16949 0.11864 -0.27119 0.28814 -0.27119 l5.1356 0 c0.15254 0 0.27119 0.084746 0.27119 0.27119 l0 1.1186 z M47.67781355932203 22.4746 c0.10169 0.15254 0.10136 0.27119 -0.01728 0.39 c-0.74576 0.71186 -1.7288 1.2541 -2.9153 1.2541 c-2.339 0 -4.339 -1.8812 -4.339 -4.288 c0 -2.4237 2 -4.339 4.339 -4.339 c1.1864 0 2.1525 0.49153 2.8475 1.1864 c0.11864 0.11881 0.11864 0.25441 0.016949 0.38983 l-0.64407 0.81356 c-0.10169 0.13559 -0.20339 0.15254 -0.40678 0.016949 c-0.42373 -0.42373 -1 -0.67797 -1.7627 -0.67797 c-1.61 0 -2.61 1.2542 -2.61 2.5932 c0 1.322 1 2.5932 2.6271 2.5932 c0.76271 0 1.3051 -0.28814 1.7966 -0.77966 c0.18644 -0.15254 0.30525 -0.10169 0.4239 0.033898 z M53.440528813559325 24.11864 c2.3729 0 4.339 -1.8812 4.339 -4.3049 c0 -2.4746 -1.9661 -4.322 -4.339 -4.322 s-4.339 1.8475 -4.339 4.322 c0 2.4237 1.9661 4.3049 4.339 4.3049 z M53.440528813559325 22.39 c-1.4576 0 -2.5424 -1.2034 -2.5424 -2.5593 c0 -1.4068 1.0847 -2.6102 2.5424 -2.6102 s2.5424 1.2034 2.5424 2.6102 c0 1.3559 -1.0847 2.5593 -2.5424 2.5593 z M67.61002711864407 23.64424 c0.033898 0.18644 -0.016784 0.35576 -0.16916 0.35576 l-1.1017 0 c-0.44068 0 -0.66102 -0.28797 -0.66102 -0.6778 l0 -4.4068 c0 -1.1186 -0.77966 -1.7627 -1.8983 -1.7627 c-0.9661 0 -1.7797 0.45763 -2.4575 1.1186 l0 5.4578 c0 0.15238 -0.11864 0.27102 -0.27119 0.27102 l-1.3222 0 c-0.15238 0 -0.25407 -0.11864 -0.25407 -0.27102 l0 -7.8476 c0 -0.15238 0.10169 -0.27119 0.25407 -0.27119 l0.91525 0 c0.40678 0 0.66102 0.42373 0.67797 0.72881 l0 0.16949 c0.66102 -0.50864 1.5422 -1.0171 2.6947 -1.0171 c1.7458 0 3.4915 1.1019 3.4915 3.2205 l0 3.7627 c0.016784 0.47458 0.050681 0.83051 0.10153 1.1695 z M77.62697627118644 23.64424 c0.033898 0.18644 -0.016784 0.35576 -0.16916 0.35576 l-1.1017 0 c-0.44068 0 -0.66102 -0.28797 -0.66102 -0.6778 l0 -4.4068 c0 -1.1186 -0.77966 -1.7627 -1.8983 -1.7627 c-0.9661 0 -1.7797 0.45763 -2.4575 1.1186 l0 5.4578 c0 0.15238 -0.11864 0.27102 -0.27119 0.27102 l-1.3222 0 c-0.15238 0 -0.25407 -0.11864 -0.25407 -0.27102 l0 -7.8476 c0 -0.15238 0.10169 -0.27119 0.25407 -0.27119 l0.91525 0 c0.40678 0 0.66102 0.42373 0.67797 0.72881 l0 0.16949 c0.66102 -0.50864 1.5422 -1.0171 2.6947 -1.0171 c1.7458 0 3.4915 1.1019 3.4915 3.2205 l0 3.7627 c0.016784 0.47458 0.050681 0.83051 0.10153 1.1695 z M86.3559254237288 20.4915 c0.61 0 1.0336 -0.30508 1.0336 -1.0169 c0 -2.0847 -1.6102 -3.9831 -4.0847 -3.9831 c-2.3559 0 -4.2034 1.8644 -4.2034 4.3051 c0 2.5422 1.9322 4.288 4.3051 4.288 c1.5085 0 2.6949 -0.61017 3.4237 -1.5932 c0.10186 -0.13559 0.067963 -0.23729 -0.033568 -0.37288 l-0.32203 -0.42373 c-0.13559 -0.16933 -0.27119 -0.15254 -0.44085 -0.050847 c-0.5422 0.44068 -1.4405 0.81373 -2.4236 0.81373 c-1.3898 0 -2.3729 -0.84746 -2.5593 -1.9661 l5.3051 0 z M81.0507254237288 19.0508 c0.067797 -0.81356 0.83051 -1.8644 2.2203 -1.8644 c1.4068 0 2.1356 1.0678 2.1864 1.8644 l-4.4068 0 z M95.96594915254236 22.4746 c0.10169 0.15254 0.10136 0.27119 -0.01728 0.39 c-0.74576 0.71186 -1.7288 1.2541 -2.9153 1.2541 c-2.339 0 -4.339 -1.8812 -4.339 -4.288 c0 -2.4237 2 -4.339 4.339 -4.339 c1.1864 0 2.1525 0.49153 2.8475 1.1864 c0.11864 0.11881 0.11864 0.25441 0.016949 0.38983 l-0.64407 0.81356 c-0.10169 0.13559 -0.20339 0.15254 -0.40678 0.016949 c-0.42373 -0.42373 -1 -0.67797 -1.7627 -0.67797 c-1.61 0 -2.61 1.2542 -2.61 2.5932 c0 1.322 1 2.5932 2.6271 2.5932 c0.76271 0 1.3051 -0.28814 1.7966 -0.77966 c0.18644 -0.15254 0.30525 -0.10169 0.4239 0.033898 z M102.84726440677966 23.4578 c0.050847 0.13559 -0.050681 0.22 -0.16933 0.30475 c-0.28814 0.18644 -0.91525 0.32203 -1.5424 0.32203 c-1.8136 0 -2.4746 -0.9322 -2.4746 -3.1186 l0 -3.5763 l-1 0 c-0.15254 0 -0.27119 -0.10169 -0.27119 -0.27119 l0 -0.28814 c0 -0.13559 0.033898 -0.23712 0.13559 -0.33898 c0.98305 -0.79661 1.7627 -1.6269 2.4407 -3.339 c0.050847 -0.11864 0.10169 -0.18644 0.18644 -0.18644 l0.18644 0 c0.13559 0 0.18644 0.067797 0.18644 0.22034 l0 2.4237 l1.7797 0 c0.15254 0 0.28814 0.11881 0.28814 0.28831 l0 1.2203 c0 0.15254 -0.13559 0.27119 -0.28814 0.27119 l-1.4746 0 c-0.13559 0 -0.25424 -0.016949 -0.32203 -0.050847 l0 3.4576 c0 0.98305 0.11864 1.5424 0.94915 1.5424 c0.35593 0 0.59322 -0.050847 0.79661 -0.10169 s0.33898 0.033898 0.37288 0.22051 z"></path></g><g id="SvgjsG1034" featurekey="text3" fill="#ffffff" transform="matrix(1.3338790686591468,0,0,1.3338790686591468,99.17299513008167,72.80998333256801)"><path d="M19.36 19.4 l0 0.6 l-4.32 0 l0 -0.6 l0.22 0 c0.58 0 0.7 -0.52 0.7 -0.9 c0 -0.12 -0.14 -1.58 -0.3 -3.22 c-0.2 -2.16 -0.48 -5.04 -0.56 -6.02 c0 -0.22 0 -0.58 -0.02 -0.58 c-0.08 0 -0.68 1.46 -1.56 3.66 c-0.72 1.78 -1.68 4.22 -2.84 6.74 c-0.34 0.74 -0.82 0.92 -1.36 0.92 c-0.32 0 -0.56 -0.18 -0.56 -0.28 c0.06 -0.12 0.12 -0.32 0.12 -0.7 c0 -0.94 -2.16 -5.5 -2.94 -7.34 c-0.96 -2.28 -1.28 -3.04 -1.34 -3.04 c-0.12 0 -0.8 9.22 -0.8 9.62 c0 0.7 0.18 1.14 0.72 1.14 l0.22 0 l0 0.6 l-4.12 0 l0 -0.6 l0.36 0 c1.06 0 1.48 -0.86 1.52 -1.36 l0.82 -10.06 c-0.02 -0.5 -0.24 -0.94 -1.02 -0.94 l-0.72 0 l0 -0.58 l2.24 0 c1.18 0 1.66 0.36 2.2 1.7 c1.34 3.28 2.62 6 3.98 9.5 c1.48 -3.44 2.48 -6.26 3.66 -9.1 c0.2 -0.5 0.88 -2.1 2.38 -2.1 l2.24 0 l0 0.58 l-0.68 0 c-0.66 0 -1.1 0.28 -1.1 0.86 c0.02 0.34 0.12 1.7 0.98 10.06 c0.1 0.9 0.72 1.44 1.42 1.44 l0.46 0 z M28.72 6.34 c2.08 0 2.5 0.52 2.52 1.9 c0 0.74 -0.52 1.56 -1.18 1.56 c0 -1.8 -0.64 -2.58 -2.9 -2.58 c-1.3 0 -3.1 0.12 -3.1 0.98 l0 4.2 l3.42 0 c1 0 1.16 0.46 1.16 0.76 c0 0.58 -0.72 1.16 -1.28 1.16 c0 -0.54 -0.38 -0.9 -1.28 -0.9 l-2.02 0 l0 4.94 c0 0.72 1.94 0.74 3.34 0.74 c2.62 0 3.3 -1.98 3.3 -2.32 c0.58 0 1.08 0.56 1.08 1.16 c0 1.72 -2 2.06 -3.94 2.06 l-6.84 0 l0 -0.72 l0.66 0 c0.42 0 0.96 -0.26 0.96 -0.9 l0 -10.4 c0 -0.36 -0.14 -0.94 -0.96 -0.94 l-0.62 0 l0 -0.58 l2.84 0 c0.98 0 3.82 -0.12 4.84 -0.12 z M41.480000000000004 6.34 c2.08 0 2.5 0.52 2.52 1.9 c0 0.74 -0.52 1.56 -1.18 1.56 c0 -1.8 -0.64 -2.58 -2.9 -2.58 c-1.3 0 -3.1 0.12 -3.1 0.98 l0 4.2 l3.42 0 c1 0 1.16 0.46 1.16 0.76 c0 0.58 -0.72 1.16 -1.28 1.16 c0 -0.54 -0.38 -0.9 -1.28 -0.9 l-2.02 0 l0 4.94 c0 0.72 1.94 0.74 3.34 0.74 c2.62 0 3.3 -1.98 3.3 -2.32 c0.58 0 1.08 0.56 1.08 1.16 c0 1.72 -2 2.06 -3.94 2.06 l-6.84 0 l0 -0.72 l0.66 0 c0.42 0 0.96 -0.26 0.96 -0.9 l0 -10.4 c0 -0.36 -0.14 -0.94 -0.96 -0.94 l-0.62 0 l0 -0.58 l2.84 0 c0.98 0 3.82 -0.12 4.84 -0.12 z M56.4 7.300000000000001 c0 0.56 -0.08 2 -0.78 2 c0 -2 -1.84 -2 -3.06 -2 c-0.6 0 -0.76 0.42 -0.76 0.84 l0 10.1 c0 0.62 0.48 1.16 1.22 1.16 l0.74 0 l0 0.6 l-5.34 0 l0 -0.6 l0.68 0 c0.6 0 1.24 -0.44 1.24 -1.16 l0 -10.02 c0 -0.52 -0.12 -0.94 -0.8 -0.94 c-2.62 0 -2.98 1.2 -3.14 1.66 c-0.26 0 -0.64 -0.7 -0.64 -1.28 c0 -0.26 0 -0.78 0.58 -1.08 c0.44 -0.22 1.22 -0.22 1.86 -0.22 c0.72 0 1.46 0.06 2.88 0.06 c0.42 0 3.62 -0.1 4.2 -0.1 c0.92 0 1.12 0.56 1.12 0.98 z  M75.92 13.1 c0 2.64 -1.32 7.04 -5.86 7.04 c-1.7 0 -2.64 -0.48 -2.64 -1.2 c0 -0.76 0.9 -0.76 0.9 -0.76 s0.28 0.96 1.94 0.96 c2.9 0 4.06 -3.18 4.06 -6.04 c0 -2.08 -0.94 -5.92 -5.06 -5.92 c-0.42 0 -1.86 0 -2.78 0.44 l0 10 c0 0.82 -0.2 2.38 -1.86 2.38 l-1.18 0 l0 -0.6 l0.44 0 c0.74 0 1.14 -0.68 1.14 -1.28 l0 -9.98 c0 -0.62 -0.22 -1.1 -0.94 -1.1 l-0.64 0 l0 -0.58 l1.92 0 c1.34 0 2.66 -0.28 4.1 -0.28 c5.84 0 6.46 4.92 6.46 6.92 z M85.3 6.34 c2.08 0 2.5 0.52 2.52 1.9 c0 0.74 -0.52 1.56 -1.18 1.56 c0 -1.8 -0.64 -2.58 -2.9 -2.58 c-1.3 0 -3.1 0.12 -3.1 0.98 l0 4.2 l3.42 0 c1 0 1.16 0.46 1.16 0.76 c0 0.58 -0.72 1.16 -1.28 1.16 c0 -0.54 -0.38 -0.9 -1.28 -0.9 l-2.02 0 l0 4.94 c0 0.72 1.94 0.74 3.34 0.74 c2.62 0 3.3 -1.98 3.3 -2.32 c0.58 0 1.08 0.56 1.08 1.16 c0 1.72 -2 2.06 -3.94 2.06 l-6.84 0 l0 -0.72 l0.66 0 c0.42 0 0.96 -0.26 0.96 -0.9 l0 -10.4 c0 -0.36 -0.14 -0.94 -0.96 -0.94 l-0.62 0 l0 -0.58 l2.84 0 c0.98 0 3.82 -0.12 4.84 -0.12 z M101.32000000000001 7.58 c0 0.68 -0.62 2.14 -1.08 3.22 c-0.66 1.54 -2.64 5.98 -3.68 8.24 c-0.44 0.96 -1.08 1.2 -1.56 1.2 c-0.4 0 -0.88 -0.24 -0.88 -0.36 c0.26 -0.26 0.34 -0.54 0.34 -0.84 c0 -0.22 -0.04 -0.46 -0.12 -0.7 l-3.5 -9.48 c-0.28 -0.74 -0.72 -1.82 -1.9 -1.82 l-0.46 0 l0 -0.58 l5.22 0 l0 0.58 l-0.52 0 c-0.76 0 -1.02 0.42 -1.02 0.94 c0 0.1 0.02 0.22 0.06 0.34 c2.34 6.5 3.32 9.44 3.48 9.74 c1.46 -3.16 3.28 -7.8 3.72 -9.18 c0.14 -0.42 0.24 -0.82 0.24 -1.22 c0 -0.44 -0.12 -0.86 -0.42 -1.28 c0.2 -0.16 0.76 -0.22 0.9 -0.22 c0.8 0 1.18 0.6 1.18 1.42 z M110 6.34 c2.08 0 2.5 0.52 2.52 1.9 c0 0.74 -0.52 1.56 -1.18 1.56 c0 -1.8 -0.64 -2.58 -2.9 -2.58 c-1.3 0 -3.1 0.12 -3.1 0.98 l0 4.2 l3.42 0 c1 0 1.16 0.46 1.16 0.76 c0 0.58 -0.72 1.16 -1.28 1.16 c0 -0.54 -0.38 -0.9 -1.28 -0.9 l-2.02 0 l0 4.94 c0 0.72 1.94 0.74 3.34 0.74 c2.62 0 3.3 -1.98 3.3 -2.32 c0.58 0 1.08 0.56 1.08 1.16 c0 1.72 -2 2.06 -3.94 2.06 l-6.84 0 l0 -0.72 l0.66 0 c0.42 0 0.96 -0.26 0.96 -0.9 l0 -10.4 c0 -0.36 -0.14 -0.94 -0.96 -0.94 l-0.62 0 l0 -0.58 l2.84 0 c0.98 0 3.82 -0.12 4.84 -0.12 z M117.70000000000002 7.9399999999999995 l0 10.32 c0 0.58 0.26 0.86 2.5 0.86 c1.2 0 2.92 -0.58 2.92 -1.86 c0 -0.42 -0.08 -0.54 -0.08 -0.54 c0.06 -0.04 0.32 -0.08 0.54 -0.08 c0.52 0 1 0.44 1 1.08 c0 1.84 -1.88 2.28 -3.84 2.28 l-6.1 0 l0 -0.72 l0.58 0 c0.74 0 1.02 -0.54 1.02 -0.9 l0 -10.36 c0 -0.28 -0.08 -0.98 -1.04 -0.98 l-0.52 0 l0 -0.58 l4.8 0 l0 0.58 l-0.8 0 c-0.48 0 -0.98 0.32 -0.98 0.9 z M132.02 20.34 c-3.78 0 -6.66 -3.16 -6.66 -7.06 c0 -4.08 2.44 -7.1 6.6 -7.1 c4.44 0 6.7 3.18 6.7 7.1 c0 3.78 -2.4 7.06 -6.64 7.06 z M126.98000000000002 13.280000000000001 c0 3.2 1.84 6.04 5.08 6.06 c3.12 0 4.98 -2.68 4.98 -6.06 c0 -3.42 -1.8 -6.16 -5.12 -6.16 c-3.44 0 -4.9 3.1 -4.94 6.16 z M145.74 6.140000000000001 c3.72 0 4.9 2.2 4.9 4.48 c0 2.5 -1.98 4.46 -4.52 4.46 c-1.04 0 -2.14 -0.34 -2.14 -1.2 c0 -0.36 0.36 -0.72 0.82 -0.74 c0 0.26 0.3 1 1.44 1 c1.92 0 2.9 -1.74 2.9 -3.44 c0 -1.66 -0.84 -3.64 -3.7 -3.64 c-0.86 0 -1.98 0.26 -2.44 0.68 l0 10.44 c0 1.04 0.82 1.22 1.4 1.22 l0.56 0 l0 0.6 l-5.14 0 l0 -0.6 l0.62 0 c0.62 0 1.1 -0.42 1.1 -0.94 l0 -10.32 c0 -0.7 -0.48 -1.08 -1.2 -1.08 l-0.52 0 l0 -0.6 l1.68 0 c1.9 -0.02 2.68 -0.32 4.24 -0.32 z M159.36 6.34 c2.08 0 2.5 0.52 2.52 1.9 c0 0.74 -0.52 1.56 -1.18 1.56 c0 -1.8 -0.64 -2.58 -2.9 -2.58 c-1.3 0 -3.1 0.12 -3.1 0.98 l0 4.2 l3.42 0 c1 0 1.16 0.46 1.16 0.76 c0 0.58 -0.72 1.16 -1.28 1.16 c0 -0.54 -0.38 -0.9 -1.28 -0.9 l-2.02 0 l0 4.94 c0 0.72 1.94 0.74 3.34 0.74 c2.62 0 3.3 -1.98 3.3 -2.32 c0.58 0 1.08 0.56 1.08 1.16 c0 1.72 -2 2.06 -3.94 2.06 l-6.84 0 l0 -0.72 l0.66 0 c0.42 0 0.96 -0.26 0.96 -0.9 l0 -10.4 c0 -0.36 -0.14 -0.94 -0.96 -0.94 l-0.62 0 l0 -0.58 l2.84 0 c0.98 0 3.82 -0.12 4.84 -0.12 z M174.20000000000002 16.759999999999998 c1.22 2.22 1.54 2.58 2.32 2.58 l0 0.12 c0 0.56 -0.56 0.82 -1.18 0.82 c-0.96 0 -1.44 -0.94 -2.16 -2.3 c-0.78 -1.46 -1.9 -3.62 -3.66 -3.62 c-0.32 0 -0.98 -0.18 -0.98 -0.68 c0 -0.22 0.08 -0.52 0.22 -0.72 c0 0 0.5 0.32 1.16 0.32 c2.2 0 3.12 -1.82 3.12 -2.98 c0 -1.54 -0.8 -3.24 -3.54 -3.24 c-0.74 0 -1.82 0.2 -2.44 0.56 l0 10.56 c0 0.74 0.44 1.22 1.12 1.22 l0.74 0 l0 0.6 l-5.04 0 l0 -0.6 l0.58 0 c0.76 0 1.14 -0.42 1.14 -1.22 l0 -10.24 c0 -0.56 -0.44 -0.9 -1.14 -0.9 l-0.58 0 l0 -0.58 l1.92 0 c1.56 0 2.32 -0.3 3.82 -0.3 c3.46 0 5 1.8 5 3.96 c0 2.12 -1.84 3.58 -3 3.74 c1.08 0.26 1.98 1.82 2.58 2.9 z M182.14000000000001 13.879999999999999 c-3.6 -1.52 -4 -2.9 -4 -4.3 c0 -1.54 1.48 -3.4 4.22 -3.4 c2.78 0 4.1 1.32 4.1 2.68 c0 1.24 -0.78 1.56 -1.32 1.56 c0 -2.48 -1.12 -3.32 -2.78 -3.32 c-1.54 0 -2.76 1.06 -2.76 2.4 c0 3.46 7.32 2.92 7.32 7.26 c0 1.84 -1.78 3.56 -4.82 3.56 c-3.1 0 -4.46 -1.64 -4.46 -2.76 c0 -1.26 1.08 -1.44 1.08 -1.44 s0.28 3.18 3.6 3.18 c2.68 0 3.14 -1.74 3.14 -2.38 c0 -0.68 -0.08 -1.68 -3.32 -3.04 z"></path></g></svg>