<svg viewBox="0 0 452 459" preserveAspectRatio="xMidYMid meet" class=" logo" id="fdaggdfc" style="width: 65%; height: 65%;"><defs id="SvgjsDefs1055"></defs><g id="SvgjsG1056" featurekey="root" fill="#cbfbfd" transform="matrix(1,0,0,1,NaN,NaN)"></g><g id="SvgjsG1057" featurekey="container1" fill="#000000" transform="matrix(2.4270500119303935,0,0,2.4270500119303935,0.0008679807228793121,0.0004186560353354549)"><defs xmlns="http://www.w3.org/2000/svg"></defs><g xmlns="http://www.w3.org/2000/svg">  <path d="M17.914,148.907c-0.664-0.914-1.313-1.837-1.944-2.774C16.596,147.066,17.249,147.989,17.914,148.907z"></path>  <path d="M22.657,154.94c1.844,2.153,3.788,4.249,5.861,6.251c6.914,6.805,15.159,12.525,24.004,16.851    c3.259,1.526,6.265,3.107,9.787,4.468c0.88,0.338,1.779,0.7,2.724,1.026c0.953,0.302,1.941,0.604,2.974,0.903    c1.027,0.321,2.122,0.549,3.267,0.786c1.146,0.23,2.336,0.493,3.614,0.624c-6.3-1.328-12.498-3.333-18.434-5.99    c-5.93-2.671-11.597-5.979-16.873-9.842c-10.548-7.727-19.57-17.648-26.16-28.989c-0.272-0.339-0.685-0.985-1.18-1.808    c-0.244-0.413-0.512-0.868-0.796-1.348c-0.256-0.496-0.527-1.018-0.803-1.551c-0.534-1.076-1.149-2.168-1.62-3.226    c-0.486-1.05-0.943-2.011-1.326-2.748c2.048,5.101,4.412,9.563,7.059,13.806c1.215,1.936,2.495,3.828,3.869,5.697    c-0.192-0.259-0.392-0.511-0.583-0.771c1.446,1.986,2.974,3.94,4.6,5.841C22.646,154.925,22.651,154.933,22.657,154.94z"></path>  <path d="M18.039,149.078c-0.042-0.057-0.084-0.114-0.125-0.17C17.956,148.964,17.998,149.021,18.039,149.078z"></path>  <path d="M1.335,106.042c-0.159-1.277-0.32-2.567-0.483-3.875c0.256,2.365,0.553,5.008,1.096,7.654    c-0.109-0.624-0.217-1.251-0.327-1.879C1.503,107.315,1.403,106.682,1.335,106.042z"></path>  <path d="M85.812,185.575c6.652,0.673,13.628,0.472,20.461-0.609c6.837-1.077,13.524-2.987,19.741-5.449    c-11.45,4.503-23.602,6.506-35.49,6.171C88.933,185.663,87.365,185.688,85.812,185.575z"></path>  <path d="M46.426,171.967c-0.086-0.055-0.173-0.11-0.259-0.165C46.254,171.857,46.339,171.913,46.426,171.967z"></path>  <path d="M46.167,171.802c-0.853-0.542-1.688-1.1-2.514-1.667C44.475,170.705,45.317,171.257,46.167,171.802z"></path>  <path d="M43.653,170.135c-0.899-0.623-1.797-1.248-2.66-1.897C41.861,168.886,42.752,169.516,43.653,170.135z"></path>  <path d="M56.077,177.284c5.439,2.533,11.23,4.506,17.123,5.816c-9.688-2.21-18.805-6.109-26.774-11.133    C49.486,173.914,52.703,175.716,56.077,177.284z"></path>  <path d="M177.002,107.094c0.098-1.58,0.296-3.238,0.346-4.027c0.594-5.071,0.77-9.401,0.745-13.745    c-0.11-0.783-0.425-2.25-0.55-3.918c-0.153-1.672-0.378-3.309-0.568-4.924c-0.289-1.601-0.538-3.186-0.854-4.74    c2.275,11.617,2.237,23.279,0.144,34.282C176.51,108.986,176.756,108.003,177.002,107.094z"></path>  <path d="M0.887,83.482c0.848-6.9,2.653-13.626,4.37-18.107l-0.695,3.28c0.429-0.961,1.122-3.194,2.067-5.557    c0.225-0.594,0.454-1.2,0.682-1.802c0.255-0.591,0.508-1.179,0.753-1.747c0.5-1.131,0.92-2.203,1.363-3.025    c-0.303,0.771-0.595,1.602-0.947,2.436c-0.345,0.837-0.732,1.687-1.101,2.542c0.755-1.702,0.755-1.702,1.514-3.409    C7.581,61.359,6.148,65.463,4.954,69.8c-1.133,4.352-2.029,8.926-2.511,13.032c-0.14,1.024-0.189,2.024-0.28,2.978    c-0.067,0.954-0.183,1.864-0.192,2.724c-0.042,1.719-0.1,3.224-0.071,4.428c0.105,2.409,0.25,3.61,0.459,2.939    c0.411-1.333,0.403-8.188,1.837-16.767c0.767-4.276,1.868-8.966,3.362-13.561c1.483-4.599,3.427-9.058,5.44-12.992    c-0.197,0.429-0.394,0.859-0.592,1.292c-0.181,0.442-0.362,0.885-0.545,1.331c-0.369,0.889-0.741,1.787-1.116,2.691    c-0.339,0.92-0.68,1.846-1.024,2.78c-0.173,0.466-0.347,0.933-0.521,1.402c-0.153,0.476-0.308,0.954-0.461,1.434    c-1.32,3.807-2.307,7.816-3.167,11.857L5.013,78.42c-0.205,1.014-0.292,2.046-0.444,3.067c-0.318,2.041-0.434,4.097-0.611,6.129    c-0.199,4.074-0.239,8.098,0.13,11.946c-0.015-0.914-0.03-1.726-0.017-2.512c0.038-0.785,0.075-1.545,0.115-2.355    c0.048-0.809,0.039-1.667,0.115-2.65c0.07-0.983,0.134-2.091,0.19-3.402c0.391-6.608,1.572-13.15,3.408-19.481    c1.75-6.358,3.814-11.957,6.889-17.03c0.269-0.513,0.536-1.021,0.801-1.526c0.542-1.024,0.993-2.034,1.566-3.064    c0.653-1.13,1.278-1.976,1.784-2.751c0.521-0.767,0.963-1.441,1.469-2.095c0.969-1.336,1.977-2.729,3.682-5.082    c0.075-0.009-0.022,0.185-0.2,0.473c0.506-0.725,1.194-1.622,1.959-2.49c0.755-0.875,1.488-1.803,2.109-2.569    c0.146-0.007,0.288-0.011,0.623-0.251c8.65-9.197,19.295-16.692,31.291-21.417c0.892-0.347,1.781-0.694,2.667-1.039    c0.902-0.3,1.802-0.6,2.7-0.899l1.343-0.448l1.36-0.38c0.906-0.252,1.809-0.502,2.71-0.753c1.55-0.373,3.12-0.751,4.721-1.091    c0.806-0.141,1.619-0.283,2.437-0.426c0.819-0.141,1.642-0.3,2.484-0.378c1.674-0.201,3.134-0.625,3.921-0.729    c4.369-0.249,8.73-0.199,13.849,0.216c0.397,0.007,1.015,0.043,1.732,0.082c0.717,0.041,1.537,0.061,2.332,0.134    c0.932,0.21,1.927,0.418,2.971,0.621c6.369,0.988,12.527,2.754,18.386,5.103l-0.007-0.028c0.73,0.291,1.479,0.589,2.244,0.894    c0.748,0.346,1.513,0.699,2.29,1.058c1.571,0.684,3.11,1.559,4.7,2.383c0.798,0.407,1.554,0.904,2.338,1.354    c0.77,0.474,1.576,0.894,2.32,1.412c1.508,1.002,3.037,1.961,4.446,3.032c2.402,1.723,4.619,3.507,6.6,5.198    c0.046,0.042,0.094,0.081,0.14,0.122c0.018,0.016,0.028,0.025,0.042,0.038l1.457,1.322l1.394,1.391l1.395,1.392    c0.462,0.467,0.89,0.967,1.337,1.449c-0.216-0.35-0.208-0.491-0.2-0.63c-0.689-0.66-1.504-1.441-2.309-2.21    c1.343,1.222,2.515,2.327,3.477,3.229c0.371,0.474,0.776,0.94,1.16,1.449c0.385,0.508,0.78,1.031,1.186,1.566    c0.41,0.53,0.831,1.074,1.261,1.629c0.409,0.572,0.828,1.156,1.255,1.752c2.226,2.838,4.191,5.874,6.057,8.97    c0.864,1.588,1.817,3.131,2.586,4.774l1.213,2.436l1.092,2.497c0.314,0.533,0.192,0.022,0.231-0.068    c1.225,2.962,2.21,6.042,3.102,9.146c1.692,5.556,2.839,11.323,3.408,17.211c0.225,1.378,0.321,2.772,0.52,4.153    c-0.033,0.787-0.075,1.773-0.123,2.924c-0.001,1.103,0.057,2.206,0.01,3.311c-0.042,1.104-0.085,2.212-0.128,3.326    c-0.016,0.75-0.124,1.569-0.187,2.459c-0.084,0.888-0.128,1.846-0.256,2.856c-0.13,1.008-0.268,2.076-0.412,3.192    c-0.132,1.119-0.387,2.269-0.583,3.471c-0.883,4.79-2.297,10.17-4.312,15.482c-0.242,0.826-0.427,1.486-0.592,1.855    c-0.627,1.501-1.296,2.954-1.942,4.385c-0.723,1.394-1.386,2.788-2.127,4.108c-2.441,4.646-5.246,8.876-7.949,12.379    c-0.336,0.439-0.649,0.885-0.987,1.297c-0.34,0.41-0.673,0.812-0.998,1.206c-0.66,0.779-1.25,1.558-1.876,2.234    c-1.251,1.352-2.301,2.606-3.286,3.549c-1.128,1.178-1.027,1.233-0.246,0.665c0.388-0.287,0.957-0.719,1.608-1.262    c0.631-0.569,1.362-1.228,2.122-1.914c0.776-0.677,1.519-1.441,2.235-2.161c0.708-0.725,1.416-1.386,1.962-1.984    c1.101-1.191,1.824-1.926,1.67-1.599c-1.777,3.345-5.013,7.471-9.743,12.035c-2.413,2.227-5.128,4.647-8.339,6.98    c-1.566,1.221-3.307,2.338-5.082,3.558c-1.834,1.123-3.708,2.353-5.757,3.445c-4.484,2.442,3.365-1.475,3.577-1.512    c-0.605,0.472-1.406,1.062-2.377,1.64c-1.478,0.786-2.943,1.597-4.474,2.273c-0.895,0.411-1.774,0.855-2.679,1.239l-2.729,1.122    c0.483-0.19,0.958-0.376,1.444-0.568c2.952-1.173,5.711-2.555,8.202-3.922c-0.936,0.566-1.96,1.221-3.082,1.812    c-1.203,0.622-2.448,1.302-3.697,1.909c-1.26,0.586-2.494,1.16-3.625,1.686c12.968-4.711,24.885-12.507,34.319-22.67    c4.723-5.066,8.935-10.631,12.369-16.651c3.455-6.005,6.239-12.391,8.288-18.999c-3.154,9.93-8.071,19.052-13.981,26.765    c10.744-14.507,17.15-32.293,17.999-50.636c-0.001,1.011-0.101,2.018-0.168,3.025c-0.083,1.007-0.123,2.018-0.241,3.022    c-0.257,2.005-0.441,4.021-0.827,6.009c-0.624,4-1.636,7.931-2.782,11.815c2.262-7.021,3.613-14.424,4.145-21.869    c0.554-7.451,0.092-14.947-1.057-22.211c1.974,9.622,2.301,20.524,0.619,31.298c1.182-6.949,1.482-14.112,1.028-21.214    c-0.102-2.713-0.422-5.407-0.685-7.901c-0.377-2.476-0.662-4.762-1.027-6.611c1.445,6.826,2.015,12.648,2.293,18.136    c-0.267-11.977-2.748-24.112-7.62-35.511c2.659,6.191,4.842,12.851,6.175,19.698c1.34,6.84,1.897,13.838,1.58,20.57    c-0.015-0.788,0.018-1.575-0.028-2.366c-0.036-0.791-0.071-1.586-0.107-2.391c0.287,10.85-1.384,21.604-4.696,31.717    c-1.662,5.056-3.715,9.969-6.2,14.644c-2.484,4.674-5.349,9.131-8.56,13.316c3.673-4.29,7.551-10.354,10.646-17.015    c3.081-6.675,5.368-13.894,6.941-20.199c-2.314,11.322-6.907,22.494-13.571,32.471c-6.646,9.985-15.351,18.764-25.423,25.502    c-10.06,6.759-21.474,11.437-33.187,13.748c-5.856,1.161-11.779,1.764-17.657,1.809c-5.877,0.032-11.702-0.488-17.361-1.515    l3.005,0.571c1.002,0.19,2.018,0.295,3.026,0.445c2.016,0.324,4.055,0.446,6.087,0.633c4.073,0.229,8.168,0.306,12.25-0.005    c4.089-0.217,8.152-0.827,12.196-1.572c2.006-0.456,4.036-0.829,6.017-1.414c0.994-0.278,2-0.521,2.987-0.83l2.955-0.958    c-1.492,0.462-3.062,1.074-4.739,1.523c-0.692,0.203-1.396,0.41-2.101,0.618c4.45-1.195,8.735-2.677,12.91-4.496    c1.903-0.831,3.786-1.73,5.651-2.705c-3.472,1.838-7.05,3.472-10.714,4.872c-7.006,2.619-14.295,4.418-21.66,5.382    c-1.11,0.176-2.122,0.231-3.029,0.326c-0.908,0.09-1.714,0.169-2.428,0.24c-1.429,0.113-2.484,0.164-3.222,0.245    c-1.477,0.147-1.687,0.284-1.099,0.397c0.587,0.113,1.971,0.203,3.673,0.251c1.697-0.01,3.71-0.101,5.541-0.268    c18.397-1.887,35.288-9.107,48.824-19.916c13.545-10.811,23.919-25.172,29.701-41.467c0.363-0.946,0.642-1.922,0.944-2.89    c0.293-0.971,0.617-1.932,0.882-2.912c0.491-1.97,1.072-3.917,1.448-5.917l0.619-2.985l0.487-3.012l0.241-1.507l0.172-1.517    l0.342-3.034c0.698-8.114,0.422-16.315-0.812-24.363c-0.66-4.554-1.82-9.961-3.315-14.777c-0.395-1.197-0.781-2.365-1.15-3.484    c-0.4-1.107-0.825-2.151-1.203-3.133c-0.193-0.49-0.379-0.962-0.557-1.415c-0.2-0.444-0.39-0.869-0.571-1.271    c-0.37-0.801-0.7-1.516-0.981-2.124c-3.134-6.359-7.072-12.424-11.682-18.065c-4.605-5.643-9.896-10.868-15.861-15.418    c-0.747-0.566-1.494-1.134-2.244-1.703c-0.774-0.535-1.55-1.071-2.327-1.608l-1.166-0.806l-1.203-0.756    c-0.804-0.502-1.609-1.004-2.417-1.508c-3.295-1.904-6.67-3.739-10.228-5.261c-3.521-1.598-7.206-2.895-10.957-4.055    c-1.895-0.52-3.781-1.1-5.724-1.499c-0.968-0.209-1.928-0.463-2.907-0.638c-0.979-0.174-1.96-0.347-2.944-0.521    C100.363,0.01,93.04-0.285,85.724,0.265c-7.312,0.565-14.655,1.953-21.696,4.349l-2.635,0.913c-0.881,0.297-1.73,0.682-2.597,1.019    c-0.858,0.359-1.735,0.673-2.577,1.069l-2.532,1.173c-0.852,0.376-1.675,0.808-2.496,1.245l-2.469,1.297l-2.402,1.412    c-0.8,0.472-1.606,0.933-2.372,1.458l-2.324,1.528c-0.782,0.497-1.506,1.078-2.261,1.612c-0.741,0.554-1.51,1.07-2.226,1.654    l-2.157,1.737c-0.729,0.565-1.417,1.178-2.103,1.792l-2.063,1.83l-1.971,1.919c-0.656,0.639-1.319,1.271-1.93,1.951    c-5.031,5.298-9.451,11.078-13.066,17.194c-3.615,6.116-6.503,12.509-8.667,18.962c-4.375,12.92-5.63,26.023-5.046,37.858    C0.008,97.365-0.013,90.378,0.887,83.482z M142.019,173.928c3.038-1.966,5.968-4.097,8.765-6.389    C147.944,169.878,145.026,172.038,142.019,173.928z M182.236,119.646c-0.299,0.901-0.552,1.791-0.882,2.641    c-0.323,0.852-0.641,1.69-0.957,2.523l-0.466,1.248l-0.513,1.231c-0.339,0.823-0.672,1.653-0.997,2.501    c-1.848,4.606-4.058,9.082-6.587,13.35c-2.521,4.275-5.443,8.281-8.565,12.04c-1.542,1.899-3.222,3.66-4.874,5.421    c-0.863,0.844-1.724,1.686-2.581,2.523c-0.847,0.848-1.774,1.604-2.652,2.404c-0.736,0.64-1.478,1.266-2.225,1.882    c2.772-2.281,5.413-4.718,7.896-7.312c-3.789,3.921-7.616,7.205-11.689,10.188c-1.036,0.722-2.037,1.496-3.113,2.176    c-1.073,0.684-2.153,1.372-3.247,2.069c-1.127,0.641-2.269,1.289-3.43,1.949c-1.167,0.648-2.399,1.224-3.634,1.855    c0.718-0.431,1.658-0.952,2.685-1.508c1.021-0.567,2.092-1.237,3.138-1.85c1.054-0.601,2.012-1.261,2.808-1.813    c0.796-0.552,1.42-1.01,1.745-1.306c-0.464,0.315-0.936,0.617-1.406,0.924c0.503-0.333,1.006-0.669,1.507-1.015    c-0.021,0.023-0.065,0.059-0.101,0.091c10.932-7.466,20.245-17.277,27.223-28.462c7.009-11.175,11.57-23.781,13.46-36.601    C184.369,111.937,183.427,116.043,182.236,119.646z M175.582,54.294c-0.294-0.688-0.59-1.374-0.923-2.034    C174.997,52.928,175.29,53.611,175.582,54.294z M167.134,41.596c3.025,4.566,5.623,9.379,7.773,14.352    c0.25,0.549,0.486,1.106,0.719,1.664c4.963,12.154,7.221,25.192,6.89,38.036c0.084-4.25-0.198-8.498-0.669-12.71    c-0.533-4.854-1.518-9.65-2.824-14.341c-2.562-9.407-6.723-18.323-12.005-26.451c0.485,0.67,0.996,1.396,1.525,2.166    c0.536,0.766,1.083,1.581,1.59,2.463l-0.638-1.109l-0.689-1.079l-1.378-2.156c-0.938-1.424-1.955-2.796-2.934-4.192    c-1.062-1.334-2.069-2.712-3.174-4.011c-0.836-0.953-1.637-1.938-2.485-2.879C161.827,34.504,164.636,37.889,167.134,41.596z     M96.886,1.152c1.467,0.078,2.937,0.221,4.407,0.331c1.204,0.101,2.402,0.279,3.588,0.413c0.356,0.015,0.732,0.039,1.204,0.092    c0.471,0.065,1.034,0.186,1.769,0.354c5.469,0.912,10.459,2.283,14.001,3.699c6.798,2.573,13.123,5.774,18.86,9.471    c5.739,3.69,10.889,7.887,15.246,12.471c2.008,2.179,1.422,1.704,0.315,0.646c0.551,0.585,1.104,1.172,1.662,1.764    c-0.736-0.734-1.459-1.478-2.206-2.196l-2.301-2.09c0.56,0.49,1.918,1.663,2.845,2.522c-7.389-7.539-16.026-13.799-25.375-18.404    c-9.356-4.603-19.431-7.446-29.502-8.581c1.618,0.18,2.412,0.22,3.168,0.24c-1.085-0.127-2.173-0.301-3.274-0.401    c-1.479-0.097-2.955-0.229-4.423-0.301c-1.469-0.035-2.927-0.069-4.36-0.103C93.954,1.078,95.417,1.118,96.886,1.152z"></path>  <path d="M115.942,184.69c0.143-0.042,0.283-0.083,0.426-0.125c-0.446,0.12-0.885,0.252-1.334,0.366    C115.338,184.855,115.643,184.781,115.942,184.69z"></path>  <path d="M160.424,146.151c4.235-5.587,7.977-12.263,10.366-18.014l-0.029,0.006c-6.061,14.322-15.892,26.66-28.16,35.744    c2.378-1.65,4.53-3.248,6.418-4.703C151.717,156.364,156.232,151.778,160.424,146.151z"></path>  <path d="M35.35,162.846c7.172,6.412,15.821,11.992,25.448,15.751c3.754,1.413,7.585,2.651,11.503,3.523    c1.944,0.502,3.929,0.812,5.899,1.181c0.987,0.175,1.987,0.272,2.979,0.412c0.994,0.129,1.986,0.275,2.987,0.333    c-4.519-0.501-9.005-1.251-13.372-2.44c-4.364-1.185-8.642-2.65-12.769-4.449c-4.113-1.831-8.087-3.942-11.894-6.314    C42.345,168.435,38.755,165.746,35.35,162.846z"></path>  <path d="M123.877,174.277l-2.219,0.871l-2.266,0.756c-1.5,0.54-3.047,0.944-4.59,1.373c1.551-0.39,3.111-0.754,4.624-1.254    c0.763-0.233,1.524-0.466,2.283-0.698c0.746-0.272,1.489-0.544,2.23-0.815C123.853,174.466,123.345,174.565,123.877,174.277z"></path>  <path d="M97.683,179.965c-1.16,0.099-2.326,0.09-3.494,0.102c-1.168,0.014-2.338,0.039-3.509-0.038    c0.565,0.053,1.093,0.103,1.576,0.148c0.482,0.031,0.916,0.068,1.295,0.113C94.932,180.172,96.303,180.139,97.683,179.965z"></path>  <path d="M51.441,169.209c1.341,0.787,2.765,1.48,4.178,2.244c0.354,0.194,0.996,0.415,1.801,0.709    c-1.721-0.739-3.37-1.655-5.046-2.505c-0.83-0.441-1.629-0.935-2.443-1.395c-0.812-0.464-1.621-0.927-2.389-1.445    c0.31,0.208,0.623,0.417,0.937,0.626c0.324,0.194,0.65,0.388,0.977,0.584C50.111,168.417,50.774,168.812,51.441,169.209z"></path></g></g><g id="SvgjsG1058" featurekey="text1" fill="#d73b3b" transform="matrix(3.881753080957729,0,0,3.881753080957729,73.86319198558492,143.93146548262538)"><path d="M11.494 19.482375 q0 0.986328125 -0.205078125 1.977539063 t-0.60547 1.8945 t-0.98633 1.6797 t-1.3428 1.3477 t-1.6895 0.89844 t-2.0166 0.32715 q-0.966796875 0 -1.733398438 -0.2587890625 t-1.2988 -0.7666 t-0.81543 -1.25 t-0.2832 -1.709 q0 -0.341796875 0.029296875 -0.68359375 t0.10742 -0.67383 l0.15625 -0.019531 l0 0.13672 q-0.009765625 0.888671875 0.2490234375 1.733398438 t0.77148 1.5039 t1.2793 1.0596 t1.7627 0.40039 q0.986328125 0 1.752929688 -0.3857421875 t1.333 -1.0303 t0.95215 -1.4795 t0.62012 -1.7383 t0.33691 -1.7969 t0.10254 -1.665 q0 -0.76171875 -0.1416015625 -1.665039063 t-0.42969 -1.8115 t-0.73242 -1.7578 t-1.0498 -1.5039 t-1.3818 -1.0498 t-1.7236 -0.39551 q-0.361328125 0 -0.7421875 0.1220703125 t-0.75195 0.33203 t-0.69824 0.49316 t-0.57129 0.62012 t-0.39063 0.70313 t-0.14648 0.7373 q0 0.2734375 0.068359375 0.48828125 t0.15137 0.39551 t0.15137 0.3418 t0.068359 0.32715 q0 0.283203125 -0.1904296875 0.4736328125 t-0.46387 0.19043 q-0.224609375 0 -0.361328125 -0.09765625 t-0.20996 -0.24902 t-0.10254 -0.33691 t-0.029297 -0.36133 q0 -0.419921875 0.1171875 -0.83984375 t0.3125 -0.81543 t0.44922 -0.75195 t0.51758 -0.66895 q0.64453125 -0.732421875 1.455078125 -1.157226563 t1.8066 -0.4248 q1.220703125 0 2.182617188 0.400390625 t1.6895 1.0889 t1.2354 1.6016 t0.8252 1.9287 t0.46387 2.0801 t0.14648 2.0605 z M4.873 12.920375 q0 0.09765625 -0.0244140625 0.1806640625 t-0.053711 0.16113 q-0.166015625 0.439453125 -0.3759765625 0.8447265625 t-0.32715 0.85449 q-0.439453125 1.6796875 -0.634765625 3.10546875 t-0.23926 2.7197 t0.014648 2.5293 t0.13672 2.5244 l-0.15625 0.068359 q-0.25390625 -0.78125 -0.4248046875 -1.625976563 t-0.27344 -1.7139 t-0.1416 -1.7383 t-0.039063 -1.6895 q0 -0.380859375 0.0146484375 -0.927734375 t0.063477 -1.1719 t0.14648 -1.2695 t0.26855 -1.2109 t0.41992 -1.0059 t0.61035 -0.6543 q0.166015625 -0.087890625 0.341796875 -0.1708984375 t0.37109 -0.083008 q0.302734375 0 0.302734375 0.2734375 z M18.798878125 22.587875 q-0.25390625 0.37109375 -0.6103515625 0.693359375 t-0.78125 0.55664 t-0.88867 0.37109 t-0.93262 0.13672 q-0.6640625 0 -1.240234375 -0.1708984375 t-1.0059 -0.52246 t-0.67383 -0.88379 t-0.24414 -1.2451 q0 -0.703125 0.2587890625 -1.313476563 t0.71289 -1.0645 t1.0693 -0.71777 t1.3184 -0.26367 q0.33203125 0 0.6201171875 0.0927734375 t0.50293 0.27344 t0.33691 0.44434 t0.12207 0.60547 q0 0.41015625 -0.166015625 0.72265625 t-0.43945 0.54688 t-0.62012 0.39063 t-0.72266 0.25391 t-0.74219 0.1416 t-0.66895 0.043945 l-0.23438 0 q0.126953125 0.888671875 0.703125 1.357421875 t1.5918 0.46875 q0.72265625 0 1.411132813 -0.25390625 t1.2451 -0.70313 z M13.740278125 21.386675 l0.24414 0 q0.3515625 0 0.72265625 -0.1123046875 t0.66895 -0.33203 t0.49316 -0.54199 t0.19531 -0.73242 q0 -0.400390625 -0.1708984375 -0.6640625 t-0.59082 -0.26367 q-0.4296875 0 -0.7275390625 0.2587890625 t-0.4834 0.63477 t-0.26855 0.79102 t-0.083008 0.7373 l0 0.22461 z M24.287065625 18.203075 q0 0.498046875 -0.1220703125 1.142578125 t-0.34668 1.3281 t-0.53223 1.3428 t-0.68359 1.1768 t-0.80566 0.83496 t-0.88867 0.31738 q-0.283203125 0 -0.52734375 -0.263671875 t-0.43457 -0.625 t-0.32715 -0.73242 t-0.21484 -0.57617 q-0.205078125 -0.5859375 -0.361328125 -1.171875 t-0.29297 -1.1914 q-0.009765625 -0.0390625 -0.029296875 -0.1513671875 t-0.053711 -0.22949 t-0.078125 -0.20996 t-0.083008 -0.092773 q-0.087890625 0 -0.2001953125 0.029296875 t-0.21973 0.073242 t-0.20996 0.092773 t-0.1709 0.087891 l-0.078125 -0.097656 q0.1171875 -0.1171875 0.322265625 -0.2734375 t0.42969 -0.28809 t0.45898 -0.22461 t0.41016 -0.092773 q0.234375 0 0.3955078125 0.2001953125 t0.2832 0.53711 t0.22461 0.7959 t0.21973 0.9668 l0.078125 0.3125 t0.14648 0.54199 t0.19043 0.64941 t0.21484 0.62012 t0.21973 0.46387 t0.20508 0.18555 q0.2734375 0 0.5126953125 -0.2001953125 t0.44922 -0.53223 t0.37598 -0.74707 t0.2832 -0.84473 t0.18066 -0.83008 t0.063477 -0.70313 q0 -0.56640625 -0.1171875 -1.127929688 t-0.36621 -0.99609 t-0.63477 -0.67871 t-0.91309 -0.16602 l-0.029297 -0.087891 q0.302734375 -0.126953125 0.615234375 -0.1953125 t0.625 -0.068359 q0.83984375 0 1.328125 0.419921875 t0.48828 1.2793 z M28.769521875 19.648475 q0.263671875 0 0.3955078125 0.185546875 t0.15137 0.38086 q0.009765625 0.13671875 -0.0146484375 0.25390625 t-0.1123 0.20508 t-0.24414 0.13672 t-0.41992 0.048828 q-0.458984375 0 -0.732421875 -0.0048828125 t-0.50781 -0.0048828 t-0.49805 -0.0048828 t-0.70313 -0.0048828 q-0.205078125 0 -0.3955078125 -0.01953125 t-0.3418 -0.087891 t-0.23926 -0.20996 t-0.087891 -0.39551 q0 -0.2734375 0.166015625 -0.4443359375 t0.41992 -0.1709 q0.029296875 0 0.05859375 0.0048828125 t0.058594 0.0048828 q0.732421875 0.078125 1.46484375 0.1025390625 t1.582 0.024414 z M36.513715625 22.587875 q-0.25390625 0.419921875 -0.6591796875 0.7470703125 t-0.88867 0.55664 t-1.0059 0.35156 t-1.001 0.12207 q-0.5859375 0 -1.088867188 -0.17578125 t-0.87891 -0.5127 t-0.58594 -0.81055 t-0.20996 -1.0791 q0 -0.68359375 0.2490234375 -1.337890625 t0.69336 -1.1621 t1.0547 -0.81543 t1.3232 -0.30762 q0.234375 0 0.46875 0.048828125 t0.42969 0.16113 t0.31738 0.29785 t0.12207 0.46875 t-0.14648 0.49316 t-0.37109 0.34668 t-0.4834 0.21973 t-0.49316 0.12207 l0 -0.13672 q0.13671875 -0.0390625 0.2978515625 -0.107421875 t0.29785 -0.17578 t0.22949 -0.25391 t0.092773 -0.32227 q0 -0.13671875 -0.0634765625 -0.2294921875 t-0.15625 -0.15137 t-0.20996 -0.087891 t-0.23438 -0.029297 q-0.498046875 0 -0.8935546875 0.2197265625 t-0.66895 0.58105 t-0.41504 0.81055 t-0.1416 0.9082 q0 0.52734375 0.1611328125 0.9423828125 t0.4541 0.70801 t0.71289 0.44922 t0.9375 0.15625 q0.33203125 0 0.7080078125 -0.0732421875 t0.73242 -0.20996 t0.67871 -0.33203 t0.55664 -0.43945 z M41.660109375 21.103475 q0 0.68359375 -0.224609375 1.26953125 t-0.63477 1.0156 t-0.98145 0.67383 t-1.2646 0.24414 q-0.615234375 0 -1.108398438 -0.2294921875 t-0.84473 -0.62012 t-0.53711 -0.91309 t-0.18555 -1.1182 q0 -0.498046875 0.1416015625 -0.947265625 t0.39551 -0.83496 t0.60547 -0.71289 t0.76172 -0.59082 l0.11719 0.087891 q-0.41015625 0.478515625 -0.64453125 1.0546875 t-0.23438 1.2207 q0 0.46875 0.1416015625 0.9521484375 t0.41504 0.88379 t0.68359 0.6543 t0.9375 0.25391 q0.33203125 0 0.625 -0.13671875 t0.5127 -0.37109 t0.35156 -0.53223 t0.13184 -0.62012 q0 -0.3125 -0.0927734375 -0.6103515625 t-0.25879 -0.55664 t-0.40039 -0.46875 t-0.50781 -0.34668 q-0.15625 -0.078125 -0.2978515625 -0.1171875 t-0.30762 -0.087891 q-0.068359375 -0.009765625 -0.146484375 -0.0341796875 t-0.14648 -0.058594 t-0.11719 -0.092773 t-0.048828 -0.14648 q0 -0.17578125 0.126953125 -0.322265625 t0.30273 -0.25879 t0.37109 -0.17578 t0.3418 -0.063477 q0.498046875 0 0.87890625 0.25390625 t0.63477 0.64453 t0.38086 0.85938 t0.12695 0.89844 z M50.937453125 22.587875 q-0.185546875 0.3515625 -0.3955078125 0.673828125 t-0.47363 0.56641 t-0.5957 0.39063 t-0.76172 0.14648 q-0.48828125 0 -0.83984375 -0.2392578125 t-0.60059 -0.63477 t-0.40039 -0.90332 t-0.24902 -1.0352 t-0.14648 -1.04 l-0.087891 -0.92285 q-0.185546875 0.146484375 -0.44921875 0.5615234375 t-0.53711 0.97168 t-0.52246 1.2109 t-0.40527 1.2891 q-0.029296875 0.13671875 -0.0927734375 0.283203125 t-0.15625 0.26855 t-0.21973 0.20508 t-0.2832 0.083008 q-0.25390625 0 -0.3662109375 -0.17578125 t-0.16113 -0.40039 q-0.283203125 -1.240234375 -0.3955078125 -2.373046875 t-0.1123 -2.2656 q0 -0.2734375 0.0927734375 -0.4736328125 t0.24902 -0.33203 t0.37109 -0.19531 t0.44922 -0.063477 l0.092773 0 t0.12207 0.014648 t0.097656 0.043945 t0.029297 0.078125 q-0.25390625 1.279296875 -0.244140625 2.602539063 t0.13672 2.5439 q0.107421875 -0.48828125 0.3173828125 -1.108398438 t0.48828 -1.25 t0.60547 -1.2012 t0.66895 -0.96191 q0.166015625 -0.185546875 0.3369140625 -0.3173828125 t0.4248 -0.13184 q0.146484375 0 0.244140625 0.05859375 t0.16113 0.14648 t0.097656 0.2002 t0.053711 0.21973 q0.048828125 0.283203125 0.09765625 0.732421875 t0.12207 0.95703 t0.18066 1.0205 t0.27344 0.92773 t0.40039 0.67871 t0.55664 0.26367 q0.263671875 0 0.5126953125 -0.1025390625 t0.47363 -0.26367 t0.41992 -0.37109 t0.35156 -0.41504 z M58.8964375 22.587875 q-0.185546875 0.3515625 -0.3955078125 0.673828125 t-0.47363 0.56641 t-0.5957 0.39063 t-0.76172 0.14648 q-0.48828125 0 -0.83984375 -0.2392578125 t-0.60059 -0.63477 t-0.40039 -0.90332 t-0.24902 -1.0352 t-0.14648 -1.04 l-0.087891 -0.92285 q-0.185546875 0.146484375 -0.44921875 0.5615234375 t-0.53711 0.97168 t-0.52246 1.2109 t-0.40527 1.2891 q-0.029296875 0.13671875 -0.0927734375 0.283203125 t-0.15625 0.26855 t-0.21973 0.20508 t-0.2832 0.083008 q-0.25390625 0 -0.3662109375 -0.17578125 t-0.16113 -0.40039 q-0.283203125 -1.240234375 -0.3955078125 -2.373046875 t-0.1123 -2.2656 q0 -0.2734375 0.0927734375 -0.4736328125 t0.24902 -0.33203 t0.37109 -0.19531 t0.44922 -0.063477 l0.092773 0 t0.12207 0.014648 t0.097656 0.043945 t0.029297 0.078125 q-0.25390625 1.279296875 -0.244140625 2.602539063 t0.13672 2.5439 q0.107421875 -0.48828125 0.3173828125 -1.108398438 t0.48828 -1.25 t0.60547 -1.2012 t0.66895 -0.96191 q0.166015625 -0.185546875 0.3369140625 -0.3173828125 t0.4248 -0.13184 q0.146484375 0 0.244140625 0.05859375 t0.16113 0.14648 t0.097656 0.2002 t0.053711 0.21973 q0.048828125 0.283203125 0.09765625 0.732421875 t0.12207 0.95703 t0.18066 1.0205 t0.27344 0.92773 t0.40039 0.67871 t0.55664 0.26367 q0.263671875 0 0.5126953125 -0.1025390625 t0.47363 -0.26367 t0.41992 -0.37109 t0.35156 -0.41504 z M64.638721875 22.587875 q-0.25390625 0.37109375 -0.6103515625 0.693359375 t-0.78125 0.55664 t-0.88867 0.37109 t-0.93262 0.13672 q-0.6640625 0 -1.240234375 -0.1708984375 t-1.0059 -0.52246 t-0.67383 -0.88379 t-0.24414 -1.2451 q0 -0.703125 0.2587890625 -1.313476563 t0.71289 -1.0645 t1.0693 -0.71777 t1.3184 -0.26367 q0.33203125 0 0.6201171875 0.0927734375 t0.50293 0.27344 t0.33691 0.44434 t0.12207 0.60547 q0 0.41015625 -0.166015625 0.72265625 t-0.43945 0.54688 t-0.62012 0.39063 t-0.72266 0.25391 t-0.74219 0.1416 t-0.66895 0.043945 l-0.23438 0 q0.126953125 0.888671875 0.703125 1.357421875 t1.5918 0.46875 q0.72265625 0 1.411132813 -0.25390625 t1.2451 -0.70313 z M59.580121875 21.386675 l0.24414 0 q0.3515625 0 0.72265625 -0.1123046875 t0.66895 -0.33203 t0.49316 -0.54199 t0.19531 -0.73242 q0 -0.400390625 -0.1708984375 -0.6640625 t-0.59082 -0.26367 q-0.4296875 0 -0.7275390625 0.2587890625 t-0.4834 0.63477 t-0.26855 0.79102 t-0.083008 0.7373 l0 0.22461 z M70.322309375 22.587875 q-0.25390625 0.419921875 -0.6591796875 0.7470703125 t-0.88867 0.55664 t-1.0059 0.35156 t-1.001 0.12207 q-0.5859375 0 -1.088867188 -0.17578125 t-0.87891 -0.5127 t-0.58594 -0.81055 t-0.20996 -1.0791 q0 -0.68359375 0.2490234375 -1.337890625 t0.69336 -1.1621 t1.0547 -0.81543 t1.3232 -0.30762 q0.234375 0 0.46875 0.048828125 t0.42969 0.16113 t0.31738 0.29785 t0.12207 0.46875 t-0.14648 0.49316 t-0.37109 0.34668 t-0.4834 0.21973 t-0.49316 0.12207 l0 -0.13672 q0.13671875 -0.0390625 0.2978515625 -0.107421875 t0.29785 -0.17578 t0.22949 -0.25391 t0.092773 -0.32227 q0 -0.13671875 -0.0634765625 -0.2294921875 t-0.15625 -0.15137 t-0.20996 -0.087891 t-0.23438 -0.029297 q-0.498046875 0 -0.8935546875 0.2197265625 t-0.66895 0.58105 t-0.41504 0.81055 t-0.1416 0.9082 q0 0.52734375 0.1611328125 0.9423828125 t0.4541 0.70801 t0.71289 0.44922 t0.9375 0.15625 q0.33203125 0 0.7080078125 -0.0732421875 t0.73242 -0.20996 t0.67871 -0.33203 t0.55664 -0.43945 z M76.298803125 22.587875 q-0.21484375 0.361328125 -0.5029296875 0.673828125 t-0.63477 0.54688 t-0.74707 0.36621 t-0.83008 0.13184 q-0.634765625 0 -1.118164063 -0.21484375 t-0.83496 -0.58105 t-0.58594 -0.85449 t-0.37109 -1.0205 t-0.19531 -1.0889 t-0.058594 -1.0645 q0 -0.46875 0.0390625 -0.9619140625 t0.11719 -1.0107 q-0.302734375 0.009765625 -0.5908203125 0.009765625 l-0.57129 0 q-0.185546875 0 -0.419921875 -0.009765625 t-0.43945 -0.078125 t-0.3418 -0.20508 t-0.13672 -0.40039 q0 -0.146484375 0.0537109375 -0.234375 t0.14648 -0.13184 t0.21484 -0.058594 t0.24902 -0.014648 q0.146484375 0 0.693359375 0.048828125 t1.3184 0.10742 q0.244140625 -1.15234375 0.6298828125 -2.265625 t0.87402 -2.0313 l0.13672 0 q-0.3125 1.064453125 -0.5517578125 2.1484375 t-0.35645 2.1973 q0.712890625 0.048828125 1.469726563 0.0830078125 t1.4795 0.03418 q1.064453125 0 1.728515625 -0.01953125 t1.0449 -0.048828 q0.44921875 -0.0390625 0.673828125 -0.078125 l0.039063 0.16602 q-0.5859375 0.13671875 -1.337890625 0.2587890625 t-1.6016 0.21484 t-1.7578 0.16113 t-1.8066 0.10742 q-0.01953125 0.1953125 -0.01953125 0.3955078125 l0 0.39551 q0 0.46875 0.0439453125 1.03515625 t0.16113 1.1377 t0.31738 1.1133 t0.52734 0.95703 t0.78613 0.66895 t1.084 0.25391 q0.576171875 0 1.040039063 -0.25390625 t0.88379 -0.625 z"></path></g><g id="SvgjsG1059" featurekey="text3" fill="#000000" transform="matrix(1.0244952221575516,0,0,1.0244952221575516,133.69793591377316,255.42491358825066)"><path d="M16.644 10.441 c0.11864 0 0.20339 0.10186 0.20339 0.23746 l0 13.085 c0 0.15254 -0.084746 0.23712 -0.22034 0.23712 l-0.88136 0 c-0.16949 0 -0.23729 -0.08458 -0.23729 -0.23712 l0 -10.61 l-6.1697 10.407 c-0.067797 0.11864 -0.13559 0.16949 -0.25424 0.16949 l-0.067797 0 c-0.10169 0 -0.18644 -0.050847 -0.25424 -0.16949 l-6.1525 -10.407 l0 10.61 c0 0.15254 -0.084746 0.23712 -0.22034 0.23712 l-0.88136 0 c-0.15254 0 -0.23729 -0.08458 -0.23729 -0.23712 l0 -13.102 c0 -0.11881 0.067797 -0.22051 0.20339 -0.22051 l0.81356 0 c0.11864 0 0.18644 0.050847 0.25424 0.15271 l6.5086 10.983 l6.5254 -10.983 c0.050847 -0.10186 0.11864 -0.15271 0.27119 -0.15271 l0.79661 0 z M28.084544067796607 11.729 l-7.3556 0.00049656 l0 4.9659 l4.5424 0 c0.15254 0 0.23729 0.067797 0.23729 0.23729 l0 0.81339 c0 0.15254 -0.084746 0.22034 -0.23729 0.22034 l-4.5424 0 l0 4.7458 l7.3559 0 c0.15254 0 0.23712 0.084746 0.23712 0.23712 l0 0.81356 c0 0.16949 -0.067797 0.23712 -0.23729 0.23712 l-8.4746 0 c-0.15254 0 -0.22034 -0.08458 -0.22034 -0.22017 l0 -13.119 c0 -0.15254 0.084746 -0.22034 0.22034 -0.22034 l8.4746 0 c0.15254 0 0.23712 0.084746 0.23712 0.22034 l0 0.84746 c0 0.13559 -0.067797 0.22034 -0.23729 0.22034 z M39.287933898305084 11.729 l-7.3556 0.00049656 l0 4.9659 l4.5424 0 c0.15254 0 0.23729 0.067797 0.23729 0.23729 l0 0.81339 c0 0.15254 -0.084746 0.22034 -0.23729 0.22034 l-4.5424 0 l0 4.7458 l7.3559 0 c0.15254 0 0.23712 0.084746 0.23712 0.23712 l0 0.81356 c0 0.16949 -0.067797 0.23712 -0.23729 0.23712 l-8.4746 0 c-0.15254 0 -0.22034 -0.08458 -0.22034 -0.22017 l0 -13.119 c0 -0.15254 0.084746 -0.22034 0.22034 -0.22034 l8.4746 0 c0.15254 0 0.23712 0.084746 0.23712 0.22034 l0 0.84746 c0 0.13559 -0.067797 0.22034 -0.23729 0.22034 z M51.61042372881356 10.441 c0.15254 0 0.22051 0.067797 0.22051 0.22034 l0 0.84746 c0 0.13559 -0.067797 0.22034 -0.22034 0.22034 l-4.3729 0 l0 12.034 c0 0.15254 -0.067797 0.23712 -0.20339 0.23712 l-0.67797 0 c-0.30508 0 -0.45763 -0.18644 -0.45763 -0.47441 l0 -11.797 l-4.3729 0 c-0.15254 0 -0.23729 -0.084746 -0.23729 -0.22034 l0 -0.83051 c0 -0.16949 0.084746 -0.23729 0.23729 -0.23729 l10.085 0 z  M62.89814576271186 10.441 c4.6271 0 6.9153 3.4239 6.9153 6.6949 c0 3.4576 -2.3051 6.8642 -6.8644 6.8642 l-4.6271 0 c-0.15254 0 -0.22034 -0.08458 -0.22034 -0.22017 l0 -13.119 c0 -0.15254 0.067797 -0.22034 0.22034 -0.22034 l4.5763 0 z M63.016745762711864 22.7122 c3.5422 0 5.4576 -2.7798 5.4407 -5.5764 c0 -2.7797 -1.8644 -5.4066 -5.4407 -5.4066 l-3.5932 0 l0.016949 10.983 l3.5763 0 z M80.7116627118644 11.729 l-7.3556 0.00049656 l0 4.9659 l4.5424 0 c0.15254 0 0.23729 0.067797 0.23729 0.23729 l0 0.81339 c0 0.15254 -0.084746 0.22034 -0.23729 0.22034 l-4.5424 0 l0 4.7458 l7.3559 0 c0.15254 0 0.23712 0.084746 0.23712 0.23712 l0 0.81356 c0 0.16949 -0.067797 0.23712 -0.23729 0.23712 l-8.4746 0 c-0.15254 0 -0.22034 -0.08458 -0.22034 -0.22017 l0 -13.119 c0 -0.15254 0.084746 -0.22034 0.22034 -0.22034 l8.4746 0 c0.15254 0 0.23712 0.084746 0.23712 0.22034 l0 0.84746 c0 0.13559 -0.067797 0.22034 -0.23729 0.22034 z M95.39015254237287 10.441 c0.11864 0 0.23763 0.11881 0.15287 0.30525 l-6.2544 13.153 c-0.050847 0.10153 -0.13559 0.16933 -0.25424 0.16933 l-0.13559 0 c-0.10169 0 -0.18644 -0.067797 -0.23729 -0.16933 l-6.2542 -13.169 c-0.084746 -0.16966 0.033898 -0.28831 0.15254 -0.28831 l1.1356 0 c0.13559 0 0.18644 0.10169 0.25424 0.27119 l5.0168 10.864 l5.0339 -10.864 c0.067797 -0.16949 0.11864 -0.27119 0.25424 -0.27119 l1.1356 0 z M105.96589999999999 11.729 l-7.3556 0.00049656 l0 4.9659 l4.5424 0 c0.15254 0 0.23729 0.067797 0.23729 0.23729 l0 0.81339 c0 0.15254 -0.084746 0.22034 -0.23729 0.22034 l-4.5424 0 l0 4.7458 l7.3559 0 c0.15254 0 0.23712 0.084746 0.23712 0.23712 l0 0.81356 c0 0.16949 -0.067797 0.23712 -0.23729 0.23712 l-8.4746 0 c-0.15254 0 -0.22034 -0.08458 -0.22034 -0.22017 l0 -13.119 c0 -0.15254 0.084746 -0.22034 0.22034 -0.22034 l8.4746 0 c0.15254 0 0.23712 0.084746 0.23712 0.22034 l0 0.84746 c0 0.13559 -0.067797 0.22034 -0.23729 0.22034 z M116.45758983050845 22.712 c0.13559 0 0.20339 0.084912 0.20339 0.23729 l0 0.83051 c0 0.15254 -0.067797 0.22017 -0.20339 0.22017 l-7.9492 0 c-0.15254 0 -0.20339 -0.10153 -0.20339 -0.22017 l0 -13.119 c0 -0.15254 0.067797 -0.22034 0.22034 -0.22034 l0.89831 0 c0.13559 0 0.22034 0.067797 0.22034 0.22034 l0 12.051 l6.8136 0 z M125.57632033898304 24.11864 c3.8305 0 6.9492 -3.0337 6.9492 -6.8981 c0 -3.8475 -3.1186 -6.8983 -6.9492 -6.8983 c-3.8475 0 -6.9661 3.0508 -6.9661 6.8983 c0 3.8644 3.1186 6.8981 6.9661 6.8981 z M125.57632033898304 22.8307 c-3.0847 0 -5.6441 -2.5085 -5.6441 -5.6102 s2.5593 -5.6102 5.6441 -5.6102 c3.0846 0 5.61 2.5085 5.61 5.6102 s-2.5254 5.6102 -5.61 5.6102 z M139.8643728813559 10.441 c3.0846 0 4.6437 2.4407 4.6437 4.4576 c0 2.0847 -1.5593 4.4746 -4.6439 4.4746 l-3.7966 0 l0 4.3898 c0 0.15254 -0.067797 0.23712 -0.20339 0.23712 l-0.91525 0 c-0.15238 0 -0.22017 -0.08458 -0.22017 -0.23712 l0 -13.102 c0 -0.15254 0.067797 -0.22034 0.22017 -0.22034 l4.9154 0 z M139.8133728813559 18.1019 c2.1864 0 3.3559 -1.6102 3.3559 -3.2034 s-1.1695 -3.1695 -3.3559 -3.1695 l-3.7456 0 l0 6.3729 l3.7456 0 z M154.98284915254234 11.729 l-7.3556 0.00049656 l0 4.9659 l4.5424 0 c0.15254 0 0.23729 0.067797 0.23729 0.23729 l0 0.81339 c0 0.15254 -0.084746 0.22034 -0.23729 0.22034 l-4.5424 0 l0 4.7458 l7.3559 0 c0.15254 0 0.23712 0.084746 0.23712 0.23712 l0 0.81356 c0 0.16949 -0.067797 0.23712 -0.23729 0.23712 l-8.4746 0 c-0.15254 0 -0.22034 -0.08458 -0.22034 -0.22017 l0 -13.119 c0 -0.15254 0.084746 -0.22034 0.22034 -0.22034 l8.4746 0 c0.15254 0 0.23712 0.084746 0.23712 0.22034 l0 0.84746 c0 0.13559 -0.067797 0.22034 -0.23729 0.22034 z M167.06733898305083 23.76288 c0.084746 0.13559 0.033732 0.23712 -0.11881 0.23712 l-0.88136 0 c-0.27119 0 -0.45763 -0.22017 -0.55932 -0.37271 l-3 -4.2542 l-0.050847 0 l-3.8814 0 l0 4.3898 c0 0.15254 -0.067797 0.23712 -0.23729 0.23712 l-0.88136 0 c-0.15254 0 -0.22034 -0.08458 -0.22034 -0.23712 l0 -13.102 c0 -0.15254 0.067797 -0.22034 0.22034 -0.22034 l5 0 c3.1695 0 4.6273 2.4576 4.6273 4.4746 c0 1.7288 -1.0508 3.7288 -3.2712 4.3051 z M158.5761389830508 11.729 l0.00016552 6.3727 l3.7797 0 c2.3051 0 3.4066 -1.6102 3.4066 -3.2203 c0 -1.5932 -1.1186 -3.1524 -3.4068 -3.1524 l-3.7797 0 z M168.76271423728812 21.729 l0.47441 -0.55932 c0.15238 -0.15254 0.30492 -0.13559 0.44051 -0.033898 c0.32203 0.27119 1.6441 1.7119 3.5254 1.7119 c2.2373 0 3.2203 -1.2203 3.2203 -2.4237 c0 -1.7288 -1.9663 -2.1864 -3.7459 -2.8305 c-2.0169 -0.76271 -3.7458 -1.678 -3.7458 -3.7119 c0 -1.6949 1.2373 -3.5593 4.2712 -3.5593 c2.0847 0 3.5932 1.2542 4 1.6102 c0.13559 0.11864 0.18644 0.27119 0.084912 0.40678 l-0.44068 0.57627 c-0.10169 0.13559 -0.23729 0.16949 -0.38983 0.067797 c-0.33898 -0.25424 -1.5592 -1.3898 -3.2371 -1.3898 c-1.8985 0 -2.9663 1 -2.9663 2.288 c0 1.4915 1.5086 2.0169 3.4917 2.7288 c1.8136 0.67797 4 1.5932 4 3.8305 c0 1.9661 -1.8303 3.6608 -4.5253 3.6608 c-2.4746 0 -4 -1.61 -4.3898 -1.9998 c-0.11864 -0.11864 -0.22034 -0.22034 -0.067797 -0.37271 z"></path></g></svg>