<svg viewBox="0 0 414.16949462890625 205" preserveAspectRatio="xMidYMid meet" class=" logo" id="geeececf" style="width: 60%; height: 60%;"><defs id="SvgjsDefs1040"></defs><g id="SvgjsG1041" featurekey="root" fill="#30bca7" transform="matrix(1,0,0,1,NaN,NaN)"></g><g id="SvgjsG1042" featurekey="symbol1" fill="#000000" transform="matrix(1.1666666666666667,0,0,1.1666666666666667,169.66666666666666,7.666666666666666)"><g class="st0" style="display: none;"><g class="st1" style="display: inline;"><rect x="2" y="2" class="st2" width="60" height="60" style="fill: none; stroke: #000; stroke-width: 0.1; stroke-miterlimit: 10;"></rect><line class="st2" x1="32" y1="2" x2="32" y2="62" style="fill: none; stroke: #000; stroke-width: 0.1; stroke-miterlimit: 10;"></line><line class="st2" x1="62" y1="32" x2="2" y2="32" style="fill: none; stroke: #000; stroke-width: 0.1; stroke-miterlimit: 10;"></line><line class="st2" x1="2" y1="2" x2="62" y2="62" style="fill: none; stroke: #000; stroke-width: 0.1; stroke-miterlimit: 10;"></line><rect x="10" y="10" class="st2" width="44" height="44" style="fill: none; stroke: #000; stroke-width: 0.1; stroke-miterlimit: 10;"></rect><line class="st2" x1="62" y1="2" x2="2" y2="62" style="fill: none; stroke: #000; stroke-width: 0.1; stroke-miterlimit: 10;"></line><line class="st2" x1="2" y1="32" x2="32" y2="2" style="fill: none; stroke: #000; stroke-width: 0.1; stroke-miterlimit: 10;"></line><line class="st2" x1="32" y1="2" x2="62" y2="32" style="fill: none; stroke: #000; stroke-width: 0.1; stroke-miterlimit: 10;"></line><line class="st2" x1="62" y1="32" x2="32" y2="62" style="fill: none; stroke: #000; stroke-width: 0.1; stroke-miterlimit: 10;"></line><line class="st2" x1="32" y1="62" x2="2" y2="32" style="fill: none; stroke: #000; stroke-width: 0.1; stroke-miterlimit: 10;"></line><circle class="st2" cx="32" cy="32" r="21" style="fill: none; stroke: #000; stroke-width: 0.1; stroke-miterlimit: 10;"></circle></g></g><polygon points="35.3,49.8 27.5,43 35.3,36.2 36.7,37.8 30.5,43 36.7,48.2 "></polygon><polygon points="44.7,49.8 43.3,48.2 49.5,43 43.3,37.8 44.7,36.2 52.5,43 "></polygon><rect x="39" y="36.9" transform="matrix(-0.9864 -0.1646 0.1646 -0.9864 72.3754 92.0034)" width="2" height="12.2"></rect><path d="M19,11c0-0.6,0.4-1,1-1h2V8h-2c-1.7,0-3,1.3-3,3v1c0,1.1-0.9,2-2,2l0,0v2l0,0c1.1,0,2,0.9,2,2v1c0,1.7,1.3,3,3,3h2v-2h-2  c-0.6,0-1-0.4-1-1v-1.8c0-0.9-0.4-1.7-1-2.2c0.6-0.6,1-1.4,1-2.2V11z"></path><path d="M29,11c0-0.6-0.4-1-1-1h-2V8h2c1.7,0,3,1.3,3,3v1c0,1.1,0.9,2,2,2l0,0v2l0,0c-1.1,0-2,0.9-2,2v1c0,1.7-1.3,3-3,3h-2v-2h2  c0.6,0,1-0.4,1-1v-1.8c0-0.9,0.4-1.7,1-2.2c-0.6-0.6-1-1.4-1-2.2V11z"></path><path d="M10,34v-6H7c-2.8,0-5-2.2-5-5V7c0-2.8,2.2-5,5-5h34c2.8,0,5,2.2,5,5v16c0,2.8-2.2,5-5,5H18.1L10,34z M7,4C5.3,4,4,5.3,4,7  v16c0,1.7,1.3,3,3,3h5v4l5.4-4H41c1.7,0,3-1.3,3-3V7c0-1.7-1.3-3-3-3H7z"></path><path d="M54,62l-8.1-6H23c-2.8,0-5-2.2-5-5V35c0-2.8,2.2-5,5-5h34c2.8,0,5,2.2,5,5v16c0,2.8-2.2,5-5,5h-3V62z M23,32  c-1.7,0-3,1.3-3,3v16c0,1.7,1.3,3,3,3h23.6l5.4,4v-4h5c1.7,0,3-1.3,3-3V35c0-1.7-1.3-3-3-3H23z"></path></g><g id="SvgjsG1043" featurekey="text1" fill="#572960" transform="matrix(4.0667045019911265,0,0,4.0667045019911265,-4.134578833932109,67.53953835676364)"><path d="M5.8303 10.441 c4.5085 0 6.9324 3.4917 6.9324 6.7119 c0 3.5424 -2.4407 6.8475 -6.9153 6.8475 l-4.5424 0 c-0.16966 0 -0.28831 -0.11864 -0.28831 -0.28814 l0 -13 c0 -0.15254 0.10169 -0.27119 0.27119 -0.27119 l4.5424 0 z M5.8814 22.1529 c3.1356 0 4.9324 -2.4576 4.9154 -5.0169 c0 -2.5085 -1.729 -4.8475 -4.9154 -4.8475 l-2.9661 0 l0.016949 9.8644 l2.9492 0 z M21.55931525423729 20.4915 c0.61 0 1.0336 -0.30508 1.0336 -1.0169 c0 -2.0847 -1.6102 -3.9831 -4.0847 -3.9831 c-2.3559 0 -4.2034 1.8644 -4.2034 4.3051 c0 2.5422 1.9322 4.288 4.3051 4.288 c1.5085 0 2.6949 -0.61017 3.4237 -1.5932 c0.10186 -0.13559 0.067963 -0.23729 -0.033568 -0.37288 l-0.32203 -0.42373 c-0.13559 -0.16933 -0.27119 -0.15254 -0.44085 -0.050847 c-0.5422 0.44068 -1.4405 0.81373 -2.4236 0.81373 c-1.3898 0 -2.3729 -0.84746 -2.5593 -1.9661 l5.3051 0 z M16.254115254237288 19.0508 c0.067797 -0.81356 0.83051 -1.8644 2.2203 -1.8644 c1.4068 0 2.1356 1.0678 2.1864 1.8644 l-4.4068 0 z M32.00003898305085 15.6102 l-1.4575 -0.00016552 c-0.15254 0 -0.20339 0.084746 -0.27119 0.25441 l-2.3051 5.0846 l-2.322 -5.0846 c-0.067797 -0.16966 -0.11864 -0.25441 -0.27119 -0.25441 l-1.5254 0 c-0.15254 0 -0.23712 0.084746 -0.16933 0.25441 l3.9153 8.0168 c0.050847 0.11864 0.18644 0.20339 0.28814 0.20339 l0.16949 0 c0.10169 0 0.23712 -0.084746 0.28797 -0.20339 l3.8814 -8.0168 c0.08458 -0.15254 -0.067963 -0.25424 -0.22051 -0.25424 z M39.050866101694915 20.339 c0 0.15254 -0.11864 0.27119 -0.27119 0.27119 l-5.1356 0 c-0.15254 0 -0.28814 -0.10169 -0.28814 -0.27119 l0 -1.1186 c0 -0.16949 0.11864 -0.27119 0.28814 -0.27119 l5.1356 0 c0.15254 0 0.27119 0.084746 0.27119 0.27119 l0 1.1186 z M47.67781355932203 22.4746 c0.10169 0.15254 0.10136 0.27119 -0.01728 0.39 c-0.74576 0.71186 -1.7288 1.2541 -2.9153 1.2541 c-2.339 0 -4.339 -1.8812 -4.339 -4.288 c0 -2.4237 2 -4.339 4.339 -4.339 c1.1864 0 2.1525 0.49153 2.8475 1.1864 c0.11864 0.11881 0.11864 0.25441 0.016949 0.38983 l-0.64407 0.81356 c-0.10169 0.13559 -0.20339 0.15254 -0.40678 0.016949 c-0.42373 -0.42373 -1 -0.67797 -1.7627 -0.67797 c-1.61 0 -2.61 1.2542 -2.61 2.5932 c0 1.322 1 2.5932 2.6271 2.5932 c0.76271 0 1.3051 -0.28814 1.7966 -0.77966 c0.18644 -0.15254 0.30525 -0.10169 0.4239 0.033898 z M53.440528813559325 24.11864 c2.3729 0 4.339 -1.8812 4.339 -4.3049 c0 -2.4746 -1.9661 -4.322 -4.339 -4.322 s-4.339 1.8475 -4.339 4.322 c0 2.4237 1.9661 4.3049 4.339 4.3049 z M53.440528813559325 22.39 c-1.4576 0 -2.5424 -1.2034 -2.5424 -2.5593 c0 -1.4068 1.0847 -2.6102 2.5424 -2.6102 s2.5424 1.2034 2.5424 2.6102 c0 1.3559 -1.0847 2.5593 -2.5424 2.5593 z M67.61002711864407 23.64424 c0.033898 0.18644 -0.016784 0.35576 -0.16916 0.35576 l-1.1017 0 c-0.44068 0 -0.66102 -0.28797 -0.66102 -0.6778 l0 -4.4068 c0 -1.1186 -0.77966 -1.7627 -1.8983 -1.7627 c-0.9661 0 -1.7797 0.45763 -2.4575 1.1186 l0 5.4578 c0 0.15238 -0.11864 0.27102 -0.27119 0.27102 l-1.3222 0 c-0.15238 0 -0.25407 -0.11864 -0.25407 -0.27102 l0 -7.8476 c0 -0.15238 0.10169 -0.27119 0.25407 -0.27119 l0.91525 0 c0.40678 0 0.66102 0.42373 0.67797 0.72881 l0 0.16949 c0.66102 -0.50864 1.5422 -1.0171 2.6947 -1.0171 c1.7458 0 3.4915 1.1019 3.4915 3.2205 l0 3.7627 c0.016784 0.47458 0.050681 0.83051 0.10153 1.1695 z M77.62697627118644 23.64424 c0.033898 0.18644 -0.016784 0.35576 -0.16916 0.35576 l-1.1017 0 c-0.44068 0 -0.66102 -0.28797 -0.66102 -0.6778 l0 -4.4068 c0 -1.1186 -0.77966 -1.7627 -1.8983 -1.7627 c-0.9661 0 -1.7797 0.45763 -2.4575 1.1186 l0 5.4578 c0 0.15238 -0.11864 0.27102 -0.27119 0.27102 l-1.3222 0 c-0.15238 0 -0.25407 -0.11864 -0.25407 -0.27102 l0 -7.8476 c0 -0.15238 0.10169 -0.27119 0.25407 -0.27119 l0.91525 0 c0.40678 0 0.66102 0.42373 0.67797 0.72881 l0 0.16949 c0.66102 -0.50864 1.5422 -1.0171 2.6947 -1.0171 c1.7458 0 3.4915 1.1019 3.4915 3.2205 l0 3.7627 c0.016784 0.47458 0.050681 0.83051 0.10153 1.1695 z M86.3559254237288 20.4915 c0.61 0 1.0336 -0.30508 1.0336 -1.0169 c0 -2.0847 -1.6102 -3.9831 -4.0847 -3.9831 c-2.3559 0 -4.2034 1.8644 -4.2034 4.3051 c0 2.5422 1.9322 4.288 4.3051 4.288 c1.5085 0 2.6949 -0.61017 3.4237 -1.5932 c0.10186 -0.13559 0.067963 -0.23729 -0.033568 -0.37288 l-0.32203 -0.42373 c-0.13559 -0.16933 -0.27119 -0.15254 -0.44085 -0.050847 c-0.5422 0.44068 -1.4405 0.81373 -2.4236 0.81373 c-1.3898 0 -2.3729 -0.84746 -2.5593 -1.9661 l5.3051 0 z M81.0507254237288 19.0508 c0.067797 -0.81356 0.83051 -1.8644 2.2203 -1.8644 c1.4068 0 2.1356 1.0678 2.1864 1.8644 l-4.4068 0 z M95.96594915254236 22.4746 c0.10169 0.15254 0.10136 0.27119 -0.01728 0.39 c-0.74576 0.71186 -1.7288 1.2541 -2.9153 1.2541 c-2.339 0 -4.339 -1.8812 -4.339 -4.288 c0 -2.4237 2 -4.339 4.339 -4.339 c1.1864 0 2.1525 0.49153 2.8475 1.1864 c0.11864 0.11881 0.11864 0.25441 0.016949 0.38983 l-0.64407 0.81356 c-0.10169 0.13559 -0.20339 0.15254 -0.40678 0.016949 c-0.42373 -0.42373 -1 -0.67797 -1.7627 -0.67797 c-1.61 0 -2.61 1.2542 -2.61 2.5932 c0 1.322 1 2.5932 2.6271 2.5932 c0.76271 0 1.3051 -0.28814 1.7966 -0.77966 c0.18644 -0.15254 0.30525 -0.10169 0.4239 0.033898 z M102.84726440677966 23.4578 c0.050847 0.13559 -0.050681 0.22 -0.16933 0.30475 c-0.28814 0.18644 -0.91525 0.32203 -1.5424 0.32203 c-1.8136 0 -2.4746 -0.9322 -2.4746 -3.1186 l0 -3.5763 l-1 0 c-0.15254 0 -0.27119 -0.10169 -0.27119 -0.27119 l0 -0.28814 c0 -0.13559 0.033898 -0.23712 0.13559 -0.33898 c0.98305 -0.79661 1.7627 -1.6269 2.4407 -3.339 c0.050847 -0.11864 0.10169 -0.18644 0.18644 -0.18644 l0.18644 0 c0.13559 0 0.18644 0.067797 0.18644 0.22034 l0 2.4237 l1.7797 0 c0.15254 0 0.28814 0.11881 0.28814 0.28831 l0 1.2203 c0 0.15254 -0.13559 0.27119 -0.28814 0.27119 l-1.4746 0 c-0.13559 0 -0.25424 -0.016949 -0.32203 -0.050847 l0 3.4576 c0 0.98305 0.11864 1.5424 0.94915 1.5424 c0.35593 0 0.59322 -0.050847 0.79661 -0.10169 s0.33898 0.033898 0.37288 0.22051 z"></path></g><g id="SvgjsG1044" featurekey="text3" fill="#000000" transform="matrix(1.3906512628653291,0,0,1.3906512628653291,81.23180201705075,166.6455020088818)"><path d="M16.458 10.441 c0.18644 0 0.33915 0.15238 0.33915 0.32186 l0 12.898 c0 0.16949 -0.13559 0.33881 -0.3222 0.33881 l-1.7456 0 c-0.20339 0 -0.33898 -0.15238 -0.33898 -0.33881 l0 -8.2203 l-4.9492 7.8305 c-0.10186 0.16949 -0.20356 0.23729 -0.3561 0.23729 l-0.10169 0 c-0.15254 0 -0.25424 -0.067797 -0.35593 -0.23729 l-4.9322 -7.8475 l0 8.2375 c0 0.16949 -0.15254 0.33881 -0.33898 0.33881 l-1.7458 0 c-0.18644 0 -0.33898 -0.15238 -0.33898 -0.33881 l0 -12.898 c0 -0.16949 0.13559 -0.32203 0.33898 -0.32203 l1.4576 0 c0.16949 0 0.28814 0.067797 0.38983 0.22034 l5.5763 8.8134 l5.5932 -8.8134 c0.084746 -0.15254 0.20339 -0.22034 0.38983 -0.22034 l1.4407 0 z M27.93219661016949 12.78 l-6.1697 -0.00033103 l0 3.4068 l3.322 0 c0.18644 0 0.33898 0.15254 0.33898 0.33915 l0 1.6778 c0 0.20339 -0.13559 0.3222 -0.33898 0.3222 l-3.322 0 l0 3.1356 l6.1695 0 c0.18644 0 0.33881 0.15238 0.33881 0.33881 l0 1.6613 c0 0.18644 -0.15238 0.33881 -0.33881 0.33881 l-8.2542 0 c-0.18644 0 -0.33898 -0.15238 -0.33898 -0.33881 l0 -12.898 c0 -0.16949 0.13559 -0.32203 0.3222 -0.32203 l8.2712 0 c0.18644 0 0.33881 0.15254 0.33881 0.32203 l0 1.6949 c0 0.18644 -0.15238 0.32203 -0.33881 0.32203 z M39.22033220338983 12.78 l-6.1697 -0.00033103 l0 3.4068 l3.322 0 c0.18644 0 0.33898 0.15254 0.33898 0.33915 l0 1.6778 c0 0.20339 -0.13559 0.3222 -0.33898 0.3222 l-3.322 0 l0 3.1356 l6.1695 0 c0.18644 0 0.33881 0.15238 0.33881 0.33881 l0 1.6613 c0 0.18644 -0.15238 0.33881 -0.33881 0.33881 l-8.2542 0 c-0.18644 0 -0.33898 -0.15238 -0.33898 -0.33881 l0 -12.898 c0 -0.16949 0.13559 -0.32203 0.3222 -0.32203 l8.2712 0 c0.18644 0 0.33881 0.15254 0.33881 0.32203 l0 1.6949 c0 0.18644 -0.15238 0.32203 -0.33881 0.32203 z M51.81306779661017 10.441 c0.16949 0 0.32203 0.13592 0.32203 0.32237 l0 1.6949 c0 0.16933 -0.15254 0.32186 -0.32203 0.32186 l-3.8305 0 l0 10.881 c0 0.20339 -0.13559 0.33881 -0.32203 0.33881 l-1.2542 0 c-0.54237 0 -0.84746 -0.37288 -0.84746 -0.86441 l0 -10.356 l-3.8136 0 c-0.16949 0 -0.33898 -0.13559 -0.33898 -0.32203 l0 -1.678 c0 -0.18644 0.15254 -0.33898 0.33898 -0.33898 l10.068 0 z  M63.52521525423729 10.441 c4.4068 0 6.9661 3.5424 6.9661 6.7288 c0 3.6102 -2.5763 6.8303 -6.9661 6.8303 l-4.4746 0 c-0.18644 0 -0.33898 -0.15238 -0.33898 -0.33881 l0 -12.898 c0 -0.16949 0.13559 -0.32203 0.32203 -0.32203 l4.4915 0 z M63.52521525423729 21.6612 c2.7966 0 4.4746 -2.1866 4.4576 -4.5086 c0 -2.288 -1.5932 -4.3727 -4.4576 -4.3727 l-2.4068 0 l0.016949 8.8814 l2.3898 0 z M81.28812881355933 12.78 l-6.1697 -0.00033103 l0 3.4068 l3.322 0 c0.18644 0 0.33898 0.15254 0.33898 0.33915 l0 1.6778 c0 0.20339 -0.13559 0.3222 -0.33898 0.3222 l-3.322 0 l0 3.1356 l6.1695 0 c0.18644 0 0.33881 0.15238 0.33881 0.33881 l0 1.6613 c0 0.18644 -0.15238 0.33881 -0.33881 0.33881 l-8.2542 0 c-0.18644 0 -0.33898 -0.15238 -0.33898 -0.33881 l0 -12.898 c0 -0.16949 0.13559 -0.32203 0.3222 -0.32203 l8.2712 0 c0.18644 0 0.33881 0.15254 0.33881 0.32203 l0 1.6949 c0 0.18644 -0.15238 0.32203 -0.33881 0.32203 z M96.18586440677966 10.441 c0.18661 0 0.40712 0.15238 0.28847 0.38966 l-6.2203 13 c-0.067797 0.13559 -0.20339 0.25407 -0.37288 0.25407 l-0.13559 0 c-0.15254 0 -0.28814 -0.11848 -0.35593 -0.25407 l-6.2203 -13.017 c-0.11881 -0.22017 0.10153 -0.37271 0.28797 -0.37271 l2.2203 0 c0.16949 0 0.25424 0.15254 0.33898 0.33898 l3.7966 8.3559 l3.8136 -8.3559 c0.084746 -0.18644 0.15238 -0.33898 0.33898 -0.33898 l2.2202 0 z M106.79660338983051 12.78 l-6.1697 -0.00033103 l0 3.4068 l3.322 0 c0.18644 0 0.33898 0.15254 0.33898 0.33915 l0 1.6778 c0 0.20339 -0.13559 0.3222 -0.33898 0.3222 l-3.322 0 l0 3.1356 l6.1695 0 c0.18644 0 0.33881 0.15238 0.33881 0.33881 l0 1.6613 c0 0.18644 -0.15238 0.33881 -0.33881 0.33881 l-8.2542 0 c-0.18644 0 -0.33898 -0.15238 -0.33898 -0.33881 l0 -12.898 c0 -0.16949 0.13559 -0.32203 0.3222 -0.32203 l8.2712 0 c0.18644 0 0.33881 0.15254 0.33881 0.32203 l0 1.6949 c0 0.18644 -0.15238 0.32203 -0.33881 0.32203 z M117.59323898305085 21.6612 c0.18644 0 0.32203 0.13592 0.32203 0.33915 l0 1.678 c0 0.16949 -0.13559 0.32186 -0.32203 0.32186 l-8.0169 0 c-0.16949 0 -0.25424 -0.13543 -0.25424 -0.30508 l0 -12.932 c0 -0.16949 0.13559 -0.32203 0.32203 -0.32203 l1.7627 0 c0.18644 0 0.33898 0.15254 0.33898 0.32203 l0 10.898 l5.8475 0 z M126.79645762711864 24.11864 c3.7966 0 6.8983 -3.0507 6.8983 -6.9151 c0 -3.8305 -3.1017 -6.8814 -6.8983 -6.8814 c-3.8305 0 -6.9322 3.0508 -6.9322 6.8814 c0 3.8644 3.1017 6.9151 6.9322 6.9151 z M126.79645762711864 21.7798 c-2.4407 0 -4.5085 -2.1017 -4.5085 -4.5763 c0 -2.4576 2.0678 -4.5422 4.5085 -4.5422 s4.4915 2.0846 4.4915 4.5422 c0 2.4746 -2.0508 4.5763 -4.4915 4.5763 z M141.32186440677967 10.441 c2.8136 0 4.661 2.5424 4.661 4.6271 c0 2.2373 -1.8475 4.661 -4.661 4.661 l-3 0 l0 3.9322 c0 0.20339 -0.13559 0.33881 -0.32203 0.33881 l-1.7966 0 c-0.16949 0 -0.30508 -0.13543 -0.30508 -0.33881 l0 -12.898 c0 -0.16949 0.13559 -0.32203 0.32203 -0.32203 l5.1017 0 z M141.06766440677964 17.39 c1.5932 0 2.4915 -1.1697 2.4915 -2.3222 c0 -1.1354 -0.89831 -2.288 -2.4915 -2.288 l-2.7458 0 l0 4.6102 l2.7458 0 z M156.3559254237288 12.78 l-6.1697 -0.00033103 l0 3.4068 l3.322 0 c0.18644 0 0.33898 0.15254 0.33898 0.33915 l0 1.6778 c0 0.20339 -0.13559 0.3222 -0.33898 0.3222 l-3.322 0 l0 3.1356 l6.1695 0 c0.18644 0 0.33881 0.15238 0.33881 0.33881 l0 1.6613 c0 0.18644 -0.15238 0.33881 -0.33881 0.33881 l-8.2542 0 c-0.18644 0 -0.33898 -0.15238 -0.33898 -0.33881 l0 -12.898 c0 -0.16949 0.13559 -0.32203 0.3222 -0.32203 l8.2712 0 c0.18644 0 0.33881 0.15254 0.33881 0.32203 l0 1.6949 c0 0.18644 -0.15238 0.32203 -0.33881 0.32203 z M169.25366101694914 23.61017 c0.13559 0.20339 0.034064 0.38983 -0.23712 0.38983 l-1.5763 0 c-0.47458 0 -0.88136 -0.44068 -1.0339 -0.69492 l-2.339 -3.5763 l-2.8475 0 l0 3.9322 c0 0.20339 -0.13559 0.33881 -0.32203 0.33881 l-1.7966 0 c-0.16949 0 -0.30508 -0.13543 -0.30508 -0.33881 l0 -12.898 c0 -0.16949 0.13559 -0.32203 0.32203 -0.32203 l5.4068 0 c2.7797 0 4.4915 2.5763 4.4915 4.6441 c0 1.6442 -0.98305 3.4576 -2.661 4.2373 z M161.22046101694914 12.78 l0.00033103 4.6102 l2.9659 0 c1.6102 0 2.3898 -1.1695 2.3898 -2.3559 c0 -1.1356 -0.79661 -2.2542 -2.3902 -2.2542 l-2.9659 0 z M170.86441 21.6442 l0.96576 -1.1188 c0.20339 -0.23746 0.45763 -0.23746 0.64407 -0.10186 c0.55932 0.47458 1.5593 1.3729 2.8136 1.3729 c1.2203 0 2.2712 -0.4578 2.2712 -1.5086 c0 -1.1017 -1.1356 -1.4237 -2.3051 -1.8983 c-2.4237 -1 -4.1864 -2.0339 -4.1864 -4.2373 c0 -1.7288 1.2712 -3.8136 4.339 -3.8136 c2.0847 0 3.5934 1.1866 4.0341 1.6273 c0.18644 0.18644 0.28814 0.42373 0.11864 0.62712 l-0.84746 1.1186 c-0.16966 0.22034 -0.40678 0.32203 -0.67797 0.13559 c-0.54237 -0.42373 -1.4237 -1.2034 -2.6102 -1.2034 c-1.2034 0 -1.9492 0.69492 -1.9492 1.5085 c0 0.89831 0.77966 1.339 2.0508 1.8475 c2.2203 0.93254 4.4407 1.9325 4.4407 4.3224 c0 1.9831 -1.9659 3.7964 -4.6439 3.7964 c-2.4237 0 -3.9322 -1.5422 -4.3559 -1.949 c-0.15254 -0.13559 -0.30508 -0.32203 -0.10169 -0.52542 z"></path></g></svg>